<svg width="237" height="43" viewBox="0 0 237 43" fill="none" xmlns="http://www.w3.org/2000/svg">
<g filter="url(#filter0_d_2_32)">
<path d="M17.5583 6H36L22.4417 25H4L17.5583 6Z" fill="#007AFF"/>
</g>
<g filter="url(#filter1_d_2_32)">
<path d="M18.2715 26.6408L13 34H32.39L46 15H31.6889L23.3504 26.6408H18.2715Z" fill="#312ECB"/>
</g>
<g filter="url(#filter2_d_2_32)">
<mask id="path-3-outside-1_2_32" maskUnits="userSpaceOnUse" x="51" y="8" width="183" height="27" fill="black">
<rect fill="white" x="51" y="8" width="183" height="27"/>
<path d="M73.6328 20.168C74.0534 21.0534 74.2637 21.9499 74.2637 22.8574C74.2637 23.7428 74.0423 24.6283 73.5996 25.5137C73.1569 26.377 72.4375 27.1517 71.4414 27.8379C70.4453 28.502 69.1725 28.834 67.623 28.834H67.4238C67.291 28.8561 67.1582 28.8672 67.0254 28.8672H53.6777C53.0801 28.8451 52.571 28.6348 52.1504 28.2363C51.752 27.8158 51.5417 27.3066 51.5195 26.709V11.502C51.5417 10.9043 51.752 10.4062 52.1504 10.0078C52.571 9.58724 53.0801 9.36589 53.6777 9.34375H65.0996C65.2324 9.34375 65.3652 9.35482 65.498 9.37695H65.6973C67.2467 9.42122 68.5195 9.77539 69.5156 10.4395C70.5117 11.1035 71.2311 11.8672 71.6738 12.7305C72.1165 13.5716 72.3379 14.4238 72.3379 15.2871C72.3379 16.1725 72.1276 17.0358 71.707 17.877C71.6849 17.9212 71.6628 17.9544 71.6406 17.9766C72.5482 18.6185 73.2122 19.349 73.6328 20.168ZM67.8223 24.418C68.2428 24.4401 68.5859 24.3626 68.8516 24.1855C69.1393 24.0085 69.3496 23.8092 69.4824 23.5879C69.6152 23.3444 69.6816 23.1009 69.6816 22.8574C69.6816 22.7025 69.6152 22.4922 69.4824 22.2266C69.3496 21.9388 69.1393 21.7064 68.8516 21.5293C68.5859 21.3522 68.2428 21.2526 67.8223 21.2305H65.6973H56.002V23.5215C56.002 24.1191 56.3118 24.418 56.9316 24.418H57.1973H67.8223ZM66.959 16.4824C67.2246 16.3275 67.4238 16.1504 67.5566 15.9512C67.6895 15.7298 67.7559 15.5085 67.7559 15.2871C67.7559 15.0658 67.6895 14.8555 67.5566 14.6562C67.4238 14.4349 67.2135 14.2467 66.9258 14.0918C66.6602 13.9147 66.3171 13.8151 65.8965 13.793H56.9316C56.3118 13.793 56.002 14.0918 56.002 14.6895V16.7812H65.8965C66.3171 16.7591 66.6712 16.6595 66.959 16.4824ZM83.9922 9.34375H98.0039C98.6237 9.36589 99.1328 9.59831 99.5312 10.041C99.9518 10.4837 100.162 11.015 100.162 11.6348C100.051 12.9629 99.332 13.6823 98.0039 13.793H85.1211C84.2799 13.8372 83.5827 14.1582 83.0293 14.7559C82.4759 15.3535 82.0664 16.0397 81.8008 16.8145C81.5573 17.5671 81.4355 18.3418 81.4355 19.1387C81.4355 19.9355 81.5573 20.7214 81.8008 21.4961C82.0664 22.2487 82.4759 22.9238 83.0293 23.5215C83.5827 24.1191 84.2799 24.4401 85.1211 24.4844H95.2148C95.6133 24.4622 95.8236 24.2409 95.8457 23.8203V21.8945C95.8236 21.4518 95.6133 21.2305 95.2148 21.2305H86.7148C86.0951 21.2305 85.5638 21.0202 85.1211 20.5996C84.7005 20.1569 84.4902 19.6257 84.4902 19.0059C84.4902 18.3861 84.7005 17.8548 85.1211 17.4121C85.5638 16.9915 86.0951 16.7812 86.7148 16.7812H98.0703C98.6901 16.7812 99.2214 16.9915 99.6641 17.4121C100.062 17.8327 100.273 18.3418 100.295 18.9395V19.0059V26.7754C100.273 27.373 100.062 27.8711 99.6641 28.2695C99.2435 28.6901 98.7344 28.9115 98.1367 28.9336H83.9922C82.4427 28.8451 81.1589 28.2585 80.1406 27.1738C79.1445 26.0671 78.4251 24.8164 77.9824 23.4219C77.5618 22.0273 77.3516 20.5996 77.3516 19.1387C77.3516 17.6777 77.5729 16.25 78.0156 14.8555C78.4583 13.4609 79.1777 12.2214 80.1738 11.1367C81.1699 10.0299 82.4427 9.43229 83.9922 9.34375ZM113.609 18.6738C113.012 17.5449 112.259 16.4714 111.352 15.4531C110.444 14.4349 109.57 13.8815 108.729 13.793H105.939C105.32 13.793 104.799 13.5716 104.379 13.1289C103.936 12.7083 103.715 12.1882 103.715 11.5684C103.715 10.9486 103.925 10.4284 104.346 10.0078C104.788 9.5651 105.32 9.34375 105.939 9.34375H108.729V9.37695H109.061C110.654 9.46549 112.303 10.362 114.008 12.0664C114.849 12.9297 115.624 13.9036 116.332 14.9883C117.04 13.9036 117.826 12.9297 118.689 12.0664C120.372 10.362 122.01 9.46549 123.604 9.37695H123.936V9.34375H126.725C127.344 9.34375 127.865 9.5651 128.285 10.0078C128.728 10.4284 128.949 10.9486 128.949 11.5684C128.949 12.1882 128.728 12.7083 128.285 13.1289C127.865 13.5716 127.344 13.793 126.725 13.793H123.936C123.094 13.8815 122.22 14.4349 121.312 15.4531C120.405 16.4714 119.652 17.5449 119.055 18.6738C118.922 18.9173 118.789 19.1497 118.656 19.3711C118.701 19.4375 118.745 19.5039 118.789 19.5703C119.387 20.7214 120.139 21.806 121.047 22.8242C121.954 23.8424 122.829 24.3848 123.67 24.4512H126.459C127.079 24.4512 127.599 24.6725 128.02 25.1152C128.462 25.5358 128.684 26.056 128.684 26.6758C128.684 27.2956 128.462 27.8268 128.02 28.2695C127.599 28.6901 127.079 28.9004 126.459 28.9004H123.338C121.744 28.8118 120.106 27.9264 118.424 26.2441C117.671 25.4694 116.974 24.6283 116.332 23.7207C115.69 24.6283 114.993 25.4694 114.24 26.2441C112.558 27.9264 110.92 28.8118 109.326 28.9004H106.205C105.585 28.9004 105.054 28.6901 104.611 28.2695C104.191 27.8268 103.98 27.2956 103.98 26.6758C103.98 26.056 104.202 25.5358 104.645 25.1152C105.065 24.6725 105.585 24.4512 106.205 24.4512H108.994C109.835 24.3848 110.71 23.8424 111.617 22.8242C112.525 21.806 113.277 20.7214 113.875 19.5703C113.919 19.5039 113.964 19.4375 114.008 19.3711C113.875 19.1497 113.742 18.9173 113.609 18.6738ZM136.852 31.8223C136.719 33.1504 135.988 33.8698 134.66 33.9805C134.04 33.9805 133.498 33.7702 133.033 33.3496C132.59 32.9512 132.369 32.4421 132.369 31.8223V16.0176C132.391 15.3978 132.624 14.8887 133.066 14.4902C133.509 14.0697 134.04 13.8594 134.66 13.8594H148.605C150.553 13.9258 152.025 14.3906 153.021 15.2539C154.018 16.0951 154.737 17.0579 155.18 18.1426C155.622 19.2051 155.844 20.2897 155.844 21.3965C155.844 22.5475 155.622 23.6654 155.18 24.75C154.759 25.8125 154.04 26.7754 153.021 27.6387C152.025 28.4798 150.753 28.9115 149.203 28.9336H140.836C140.216 28.9336 139.696 28.7122 139.275 28.2695C138.833 27.849 138.611 27.3288 138.611 26.709C138.611 26.0892 138.822 25.569 139.242 25.1484C139.685 24.7057 140.216 24.4844 140.836 24.4844H149.336C149.757 24.4844 150.122 24.3184 150.432 23.9863C150.742 23.6322 150.963 23.2337 151.096 22.791C151.251 22.3262 151.328 21.8724 151.328 21.4297C151.328 20.9648 151.251 20.5111 151.096 20.0684C150.963 19.6035 150.742 19.2051 150.432 18.873C150.122 18.5189 149.757 18.3307 149.336 18.3086H137.715C137.139 18.3307 136.852 18.6185 136.852 19.1719V31.8223ZM166.701 28.9336C164.753 28.8672 163.281 28.4134 162.285 27.5723C161.289 26.709 160.57 25.7461 160.127 24.6836C159.684 23.599 159.463 22.5033 159.463 21.3965C159.463 20.2454 159.673 19.1387 160.094 18.0762C160.536 16.9915 161.256 16.0286 162.252 15.1875C163.27 14.3242 164.554 13.8815 166.104 13.8594H178.721C179.34 13.8594 179.861 14.0697 180.281 14.4902C180.724 14.8887 180.945 15.3757 180.945 15.9512C180.945 16.5488 180.724 17.0579 180.281 17.4785C179.861 17.877 179.34 18.0762 178.721 18.0762H166.303C165.816 18.0762 165.384 18.2422 165.008 18.5742C164.654 18.9062 164.388 19.3379 164.211 19.8691C164.056 20.4004 163.979 20.9206 163.979 21.4297C163.979 21.9831 164.056 22.5254 164.211 23.0566C164.388 23.5879 164.654 24.0195 165.008 24.3516C165.384 24.6615 165.816 24.8275 166.303 24.8496H178.721C179.34 24.8496 179.861 25.0488 180.281 25.4473C180.724 25.8457 180.945 26.3216 180.945 26.875C180.945 27.4505 180.724 27.9375 180.281 28.3359C179.861 28.7344 179.34 28.9336 178.721 28.9336H166.701ZM180.547 21.3301C180.547 21.7507 180.359 22.1159 179.982 22.4258C179.65 22.7135 179.23 22.8574 178.721 22.8574H167.863C167.354 22.8574 166.923 22.7135 166.568 22.4258C166.214 22.1159 166.037 21.7507 166.037 21.3301C166.037 20.9316 166.214 20.5775 166.568 20.2676C166.923 19.9798 167.354 19.8359 167.863 19.8359H178.721C179.23 19.8359 179.661 19.9909 180.016 20.3008C180.37 20.5885 180.547 20.9316 180.547 21.3301ZM185.461 18.043C185.882 16.9805 186.59 16.0286 187.586 15.1875C188.604 14.3242 189.888 13.8815 191.438 13.8594H203.922C204.542 13.8594 205.062 14.0807 205.482 14.5234C205.925 14.944 206.146 15.4642 206.146 16.084C206.146 16.7038 205.925 17.235 205.482 17.6777C205.062 18.0983 204.542 18.3086 203.922 18.3086H191.305C190.884 18.3086 190.519 18.4857 190.209 18.8398C189.899 19.1719 189.656 19.5703 189.479 20.0352C189.324 20.5 189.246 20.9427 189.246 21.3633V27.1738C189.113 28.502 188.383 29.2214 187.055 29.332C186.435 29.332 185.893 29.1328 185.428 28.7344C184.985 28.3138 184.764 27.7936 184.764 27.1738V21.3965H184.797C184.797 20.2454 185.018 19.1276 185.461 18.043ZM216.639 8.8125C217.258 8.8125 217.79 9.02279 218.232 9.44336C218.675 9.8418 218.908 10.3509 218.93 10.9707V13.8594H230.219C230.839 13.8594 231.37 14.0697 231.812 14.4902C232.233 14.9329 232.443 15.4642 232.443 16.084C232.443 16.7038 232.222 17.235 231.779 17.6777C231.359 18.0983 230.839 18.3086 230.219 18.3086H218.93V18.9727C218.908 19.8802 218.963 20.7214 219.096 21.4961C219.251 22.2487 219.605 22.9238 220.158 23.5215C220.712 24.1191 221.409 24.4401 222.25 24.4844H230.352C230.971 24.5065 231.48 24.7389 231.879 25.1816C232.299 25.6243 232.51 26.1556 232.51 26.7754C232.488 27.373 232.266 27.8822 231.846 28.3027C231.447 28.7012 230.949 28.9115 230.352 28.9336H221.121C219.572 28.8451 218.288 28.3249 217.27 27.373C216.273 26.3991 215.554 25.2148 215.111 23.8203C214.691 22.4258 214.469 20.9427 214.447 19.3711V18.3086H210.629C210.009 18.3086 209.489 18.0872 209.068 17.6445C208.626 17.224 208.404 16.7038 208.404 16.084C208.404 15.4642 208.615 14.944 209.035 14.5234C209.478 14.0807 210.009 13.8594 210.629 13.8594H214.447V10.9707C214.469 10.373 214.691 9.875 215.111 9.47656C215.532 9.05599 216.041 8.83464 216.639 8.8125Z"/>
</mask>
<path d="M73.6328 20.168C74.0534 21.0534 74.2637 21.9499 74.2637 22.8574C74.2637 23.7428 74.0423 24.6283 73.5996 25.5137C73.1569 26.377 72.4375 27.1517 71.4414 27.8379C70.4453 28.502 69.1725 28.834 67.623 28.834H67.4238C67.291 28.8561 67.1582 28.8672 67.0254 28.8672H53.6777C53.0801 28.8451 52.571 28.6348 52.1504 28.2363C51.752 27.8158 51.5417 27.3066 51.5195 26.709V11.502C51.5417 10.9043 51.752 10.4062 52.1504 10.0078C52.571 9.58724 53.0801 9.36589 53.6777 9.34375H65.0996C65.2324 9.34375 65.3652 9.35482 65.498 9.37695H65.6973C67.2467 9.42122 68.5195 9.77539 69.5156 10.4395C70.5117 11.1035 71.2311 11.8672 71.6738 12.7305C72.1165 13.5716 72.3379 14.4238 72.3379 15.2871C72.3379 16.1725 72.1276 17.0358 71.707 17.877C71.6849 17.9212 71.6628 17.9544 71.6406 17.9766C72.5482 18.6185 73.2122 19.349 73.6328 20.168ZM67.8223 24.418C68.2428 24.4401 68.5859 24.3626 68.8516 24.1855C69.1393 24.0085 69.3496 23.8092 69.4824 23.5879C69.6152 23.3444 69.6816 23.1009 69.6816 22.8574C69.6816 22.7025 69.6152 22.4922 69.4824 22.2266C69.3496 21.9388 69.1393 21.7064 68.8516 21.5293C68.5859 21.3522 68.2428 21.2526 67.8223 21.2305H65.6973H56.002V23.5215C56.002 24.1191 56.3118 24.418 56.9316 24.418H57.1973H67.8223ZM66.959 16.4824C67.2246 16.3275 67.4238 16.1504 67.5566 15.9512C67.6895 15.7298 67.7559 15.5085 67.7559 15.2871C67.7559 15.0658 67.6895 14.8555 67.5566 14.6562C67.4238 14.4349 67.2135 14.2467 66.9258 14.0918C66.6602 13.9147 66.3171 13.8151 65.8965 13.793H56.9316C56.3118 13.793 56.002 14.0918 56.002 14.6895V16.7812H65.8965C66.3171 16.7591 66.6712 16.6595 66.959 16.4824ZM83.9922 9.34375H98.0039C98.6237 9.36589 99.1328 9.59831 99.5312 10.041C99.9518 10.4837 100.162 11.015 100.162 11.6348C100.051 12.9629 99.332 13.6823 98.0039 13.793H85.1211C84.2799 13.8372 83.5827 14.1582 83.0293 14.7559C82.4759 15.3535 82.0664 16.0397 81.8008 16.8145C81.5573 17.5671 81.4355 18.3418 81.4355 19.1387C81.4355 19.9355 81.5573 20.7214 81.8008 21.4961C82.0664 22.2487 82.4759 22.9238 83.0293 23.5215C83.5827 24.1191 84.2799 24.4401 85.1211 24.4844H95.2148C95.6133 24.4622 95.8236 24.2409 95.8457 23.8203V21.8945C95.8236 21.4518 95.6133 21.2305 95.2148 21.2305H86.7148C86.0951 21.2305 85.5638 21.0202 85.1211 20.5996C84.7005 20.1569 84.4902 19.6257 84.4902 19.0059C84.4902 18.3861 84.7005 17.8548 85.1211 17.4121C85.5638 16.9915 86.0951 16.7812 86.7148 16.7812H98.0703C98.6901 16.7812 99.2214 16.9915 99.6641 17.4121C100.062 17.8327 100.273 18.3418 100.295 18.9395V19.0059V26.7754C100.273 27.373 100.062 27.8711 99.6641 28.2695C99.2435 28.6901 98.7344 28.9115 98.1367 28.9336H83.9922C82.4427 28.8451 81.1589 28.2585 80.1406 27.1738C79.1445 26.0671 78.4251 24.8164 77.9824 23.4219C77.5618 22.0273 77.3516 20.5996 77.3516 19.1387C77.3516 17.6777 77.5729 16.25 78.0156 14.8555C78.4583 13.4609 79.1777 12.2214 80.1738 11.1367C81.1699 10.0299 82.4427 9.43229 83.9922 9.34375ZM113.609 18.6738C113.012 17.5449 112.259 16.4714 111.352 15.4531C110.444 14.4349 109.57 13.8815 108.729 13.793H105.939C105.32 13.793 104.799 13.5716 104.379 13.1289C103.936 12.7083 103.715 12.1882 103.715 11.5684C103.715 10.9486 103.925 10.4284 104.346 10.0078C104.788 9.5651 105.32 9.34375 105.939 9.34375H108.729V9.37695H109.061C110.654 9.46549 112.303 10.362 114.008 12.0664C114.849 12.9297 115.624 13.9036 116.332 14.9883C117.04 13.9036 117.826 12.9297 118.689 12.0664C120.372 10.362 122.01 9.46549 123.604 9.37695H123.936V9.34375H126.725C127.344 9.34375 127.865 9.5651 128.285 10.0078C128.728 10.4284 128.949 10.9486 128.949 11.5684C128.949 12.1882 128.728 12.7083 128.285 13.1289C127.865 13.5716 127.344 13.793 126.725 13.793H123.936C123.094 13.8815 122.22 14.4349 121.312 15.4531C120.405 16.4714 119.652 17.5449 119.055 18.6738C118.922 18.9173 118.789 19.1497 118.656 19.3711C118.701 19.4375 118.745 19.5039 118.789 19.5703C119.387 20.7214 120.139 21.806 121.047 22.8242C121.954 23.8424 122.829 24.3848 123.67 24.4512H126.459C127.079 24.4512 127.599 24.6725 128.02 25.1152C128.462 25.5358 128.684 26.056 128.684 26.6758C128.684 27.2956 128.462 27.8268 128.02 28.2695C127.599 28.6901 127.079 28.9004 126.459 28.9004H123.338C121.744 28.8118 120.106 27.9264 118.424 26.2441C117.671 25.4694 116.974 24.6283 116.332 23.7207C115.69 24.6283 114.993 25.4694 114.24 26.2441C112.558 27.9264 110.92 28.8118 109.326 28.9004H106.205C105.585 28.9004 105.054 28.6901 104.611 28.2695C104.191 27.8268 103.98 27.2956 103.98 26.6758C103.98 26.056 104.202 25.5358 104.645 25.1152C105.065 24.6725 105.585 24.4512 106.205 24.4512H108.994C109.835 24.3848 110.71 23.8424 111.617 22.8242C112.525 21.806 113.277 20.7214 113.875 19.5703C113.919 19.5039 113.964 19.4375 114.008 19.3711C113.875 19.1497 113.742 18.9173 113.609 18.6738ZM136.852 31.8223C136.719 33.1504 135.988 33.8698 134.66 33.9805C134.04 33.9805 133.498 33.7702 133.033 33.3496C132.59 32.9512 132.369 32.4421 132.369 31.8223V16.0176C132.391 15.3978 132.624 14.8887 133.066 14.4902C133.509 14.0697 134.04 13.8594 134.66 13.8594H148.605C150.553 13.9258 152.025 14.3906 153.021 15.2539C154.018 16.0951 154.737 17.0579 155.18 18.1426C155.622 19.2051 155.844 20.2897 155.844 21.3965C155.844 22.5475 155.622 23.6654 155.18 24.75C154.759 25.8125 154.04 26.7754 153.021 27.6387C152.025 28.4798 150.753 28.9115 149.203 28.9336H140.836C140.216 28.9336 139.696 28.7122 139.275 28.2695C138.833 27.849 138.611 27.3288 138.611 26.709C138.611 26.0892 138.822 25.569 139.242 25.1484C139.685 24.7057 140.216 24.4844 140.836 24.4844H149.336C149.757 24.4844 150.122 24.3184 150.432 23.9863C150.742 23.6322 150.963 23.2337 151.096 22.791C151.251 22.3262 151.328 21.8724 151.328 21.4297C151.328 20.9648 151.251 20.5111 151.096 20.0684C150.963 19.6035 150.742 19.2051 150.432 18.873C150.122 18.5189 149.757 18.3307 149.336 18.3086H137.715C137.139 18.3307 136.852 18.6185 136.852 19.1719V31.8223ZM166.701 28.9336C164.753 28.8672 163.281 28.4134 162.285 27.5723C161.289 26.709 160.57 25.7461 160.127 24.6836C159.684 23.599 159.463 22.5033 159.463 21.3965C159.463 20.2454 159.673 19.1387 160.094 18.0762C160.536 16.9915 161.256 16.0286 162.252 15.1875C163.27 14.3242 164.554 13.8815 166.104 13.8594H178.721C179.34 13.8594 179.861 14.0697 180.281 14.4902C180.724 14.8887 180.945 15.3757 180.945 15.9512C180.945 16.5488 180.724 17.0579 180.281 17.4785C179.861 17.877 179.34 18.0762 178.721 18.0762H166.303C165.816 18.0762 165.384 18.2422 165.008 18.5742C164.654 18.9062 164.388 19.3379 164.211 19.8691C164.056 20.4004 163.979 20.9206 163.979 21.4297C163.979 21.9831 164.056 22.5254 164.211 23.0566C164.388 23.5879 164.654 24.0195 165.008 24.3516C165.384 24.6615 165.816 24.8275 166.303 24.8496H178.721C179.34 24.8496 179.861 25.0488 180.281 25.4473C180.724 25.8457 180.945 26.3216 180.945 26.875C180.945 27.4505 180.724 27.9375 180.281 28.3359C179.861 28.7344 179.34 28.9336 178.721 28.9336H166.701ZM180.547 21.3301C180.547 21.7507 180.359 22.1159 179.982 22.4258C179.65 22.7135 179.23 22.8574 178.721 22.8574H167.863C167.354 22.8574 166.923 22.7135 166.568 22.4258C166.214 22.1159 166.037 21.7507 166.037 21.3301C166.037 20.9316 166.214 20.5775 166.568 20.2676C166.923 19.9798 167.354 19.8359 167.863 19.8359H178.721C179.23 19.8359 179.661 19.9909 180.016 20.3008C180.37 20.5885 180.547 20.9316 180.547 21.3301ZM185.461 18.043C185.882 16.9805 186.59 16.0286 187.586 15.1875C188.604 14.3242 189.888 13.8815 191.438 13.8594H203.922C204.542 13.8594 205.062 14.0807 205.482 14.5234C205.925 14.944 206.146 15.4642 206.146 16.084C206.146 16.7038 205.925 17.235 205.482 17.6777C205.062 18.0983 204.542 18.3086 203.922 18.3086H191.305C190.884 18.3086 190.519 18.4857 190.209 18.8398C189.899 19.1719 189.656 19.5703 189.479 20.0352C189.324 20.5 189.246 20.9427 189.246 21.3633V27.1738C189.113 28.502 188.383 29.2214 187.055 29.332C186.435 29.332 185.893 29.1328 185.428 28.7344C184.985 28.3138 184.764 27.7936 184.764 27.1738V21.3965H184.797C184.797 20.2454 185.018 19.1276 185.461 18.043ZM216.639 8.8125C217.258 8.8125 217.79 9.02279 218.232 9.44336C218.675 9.8418 218.908 10.3509 218.93 10.9707V13.8594H230.219C230.839 13.8594 231.37 14.0697 231.812 14.4902C232.233 14.9329 232.443 15.4642 232.443 16.084C232.443 16.7038 232.222 17.235 231.779 17.6777C231.359 18.0983 230.839 18.3086 230.219 18.3086H218.93V18.9727C218.908 19.8802 218.963 20.7214 219.096 21.4961C219.251 22.2487 219.605 22.9238 220.158 23.5215C220.712 24.1191 221.409 24.4401 222.25 24.4844H230.352C230.971 24.5065 231.48 24.7389 231.879 25.1816C232.299 25.6243 232.51 26.1556 232.51 26.7754C232.488 27.373 232.266 27.8822 231.846 28.3027C231.447 28.7012 230.949 28.9115 230.352 28.9336H221.121C219.572 28.8451 218.288 28.3249 217.27 27.373C216.273 26.3991 215.554 25.2148 215.111 23.8203C214.691 22.4258 214.469 20.9427 214.447 19.3711V18.3086H210.629C210.009 18.3086 209.489 18.0872 209.068 17.6445C208.626 17.224 208.404 16.7038 208.404 16.084C208.404 15.4642 208.615 14.944 209.035 14.5234C209.478 14.0807 210.009 13.8594 210.629 13.8594H214.447V10.9707C214.469 10.373 214.691 9.875 215.111 9.47656C215.532 9.05599 216.041 8.83464 216.639 8.8125Z" fill="#007DFC"/>
<path d="M73.6328 20.168L74.0845 19.9534L74.0811 19.9465L74.0776 19.9396L73.6328 20.168ZM73.5996 25.5137L74.0445 25.7418L74.0468 25.7373L73.5996 25.5137ZM71.4414 27.8379L71.7188 28.254L71.7251 28.2496L71.4414 27.8379ZM67.4238 28.834V28.334H67.3824L67.3416 28.3408L67.4238 28.834ZM53.6777 28.8672L53.6592 29.3668L53.6685 29.3672H53.6777V28.8672ZM52.1504 28.2363L51.7874 28.5802L51.7967 28.59L51.8065 28.5993L52.1504 28.2363ZM51.5195 26.709H51.0195V26.7182L51.0199 26.7275L51.5195 26.709ZM51.5195 11.502L51.0199 11.4834L51.0195 11.4927V11.502H51.5195ZM52.1504 10.0078L51.7968 9.65426L52.1504 10.0078ZM53.6777 9.34375V8.84375H53.6685L53.6592 8.84409L53.6777 9.34375ZM65.498 9.37695L65.4158 9.87015L65.4567 9.87695H65.498V9.37695ZM65.6973 9.37695L65.7115 8.87716L65.7044 8.87695H65.6973V9.37695ZM71.6738 12.7305L71.2289 12.9586L71.2314 12.9633L71.6738 12.7305ZM71.707 17.877L71.2598 17.6533L71.707 17.877ZM71.6406 17.9766L71.2871 17.623L70.8678 18.0423L71.3519 18.3848L71.6406 17.9766ZM67.8223 24.418L67.8485 23.9187L67.8354 23.918H67.8223V24.418ZM68.8516 24.1855L68.5895 23.7597L68.5818 23.7645L68.5742 23.7695L68.8516 24.1855ZM69.4824 23.5879L69.9112 23.8451L69.9165 23.8363L69.9214 23.8273L69.4824 23.5879ZM69.4824 22.2266L69.0284 22.4361L69.0317 22.4432L69.0352 22.4502L69.4824 22.2266ZM68.8516 21.5293L68.5742 21.9453L68.5818 21.9504L68.5895 21.9551L68.8516 21.5293ZM67.8223 21.2305L67.8485 20.7312L67.8354 20.7305H67.8223V21.2305ZM56.002 21.2305V20.7305H55.502V21.2305H56.002ZM66.959 16.4824L66.707 16.0504L66.6969 16.0566L66.959 16.4824ZM67.5566 15.9512L67.9727 16.2285L67.9793 16.2186L67.9854 16.2084L67.5566 15.9512ZM67.5566 14.6562L67.1279 14.9135L67.134 14.9237L67.1406 14.9336L67.5566 14.6562ZM66.9258 14.0918L66.6484 14.5078L66.668 14.5209L66.6887 14.532L66.9258 14.0918ZM65.8965 13.793L65.9228 13.2937L65.9096 13.293H65.8965V13.793ZM56.002 16.7812H55.502V17.2812H56.002V16.7812ZM65.8965 16.7812V17.2812H65.9096L65.9228 17.2806L65.8965 16.7812ZM73.1812 20.3825C73.5725 21.2063 73.7637 22.0299 73.7637 22.8574H74.7637C74.7637 21.8698 74.5343 20.9004 74.0845 19.9534L73.1812 20.3825ZM73.7637 22.8574C73.7637 23.6565 73.5645 24.4658 73.1524 25.2901L74.0468 25.7373C74.5201 24.7907 74.7637 23.8292 74.7637 22.8574H73.7637ZM73.1547 25.2855C72.7579 26.0592 72.1023 26.7755 71.1578 27.4261L71.7251 28.2496C72.7727 27.5279 73.5559 26.6947 74.0445 25.7418L73.1547 25.2855ZM71.1641 27.4219C70.2711 28.0171 69.1026 28.334 67.623 28.334V29.334C69.2425 29.334 70.6195 28.9868 71.7188 28.2539L71.1641 27.4219ZM67.623 28.334H67.4238V29.334H67.623V28.334ZM67.3416 28.3408C67.2356 28.3585 67.1303 28.3672 67.0254 28.3672V29.3672C67.1861 29.3672 67.3464 29.3538 67.506 29.3272L67.3416 28.3408ZM67.0254 28.3672H53.6777V29.3672H67.0254V28.3672ZM53.6962 28.3675C53.2157 28.3497 52.8235 28.1853 52.4943 27.8734L51.8065 28.5993C52.3184 29.0843 52.9444 29.3404 53.6592 29.3668L53.6962 28.3675ZM52.5134 27.8925C52.2014 27.5632 52.037 27.171 52.0192 26.6905L51.0199 26.7275C51.0463 27.4423 51.3025 28.0683 51.7874 28.5802L52.5134 27.8925ZM52.0195 26.709V11.502H51.0195V26.709H52.0195ZM52.0192 11.5205C52.037 11.0404 52.2006 10.6647 52.5039 10.3614L51.7968 9.65426C51.3033 10.1478 51.0464 10.7682 51.0199 11.4834L52.0192 11.5205ZM52.5039 10.3614C52.8347 10.0306 53.2239 9.8609 53.6962 9.84341L53.6592 8.84409C52.9362 8.87087 52.3072 9.1439 51.7968 9.65426L52.5039 10.3614ZM53.6777 9.84375H65.0996V8.84375H53.6777V9.84375ZM65.0996 9.84375C65.2045 9.84375 65.3098 9.85248 65.4158 9.87015L65.5802 8.88376C65.4206 8.85716 65.2603 8.84375 65.0996 8.84375V9.84375ZM65.498 9.87695H65.6973V8.87695H65.498V9.87695ZM65.683 9.87675C67.1659 9.91912 68.3402 10.2568 69.2383 10.8555L69.793 10.0234C68.6989 9.29403 67.3276 8.92333 65.7115 8.87716L65.683 9.87675ZM69.2383 10.8555C70.1798 11.4832 70.8332 12.1871 71.2289 12.9586L72.1187 12.5023C71.629 11.5473 70.8436 10.7238 69.793 10.0234L69.2383 10.8555ZM71.2314 12.9633C71.6402 13.7401 71.8379 14.5129 71.8379 15.2871H72.8379C72.8379 14.3347 72.5929 13.4032 72.1163 12.4976L71.2314 12.9633ZM71.8379 15.2871C71.8379 16.0901 71.6479 16.8772 71.2598 17.6533L72.1542 18.1006C72.6073 17.1944 72.8379 16.2549 72.8379 15.2871H71.8379ZM71.2598 17.6533C71.2559 17.6611 71.255 17.6619 71.2578 17.6577C71.2603 17.654 71.2695 17.6405 71.2871 17.623L71.9942 18.3301C72.0698 18.2545 72.1203 18.1684 72.1542 18.1006L71.2598 17.6533ZM71.3519 18.3848C72.2072 18.9898 72.8111 19.6624 73.188 20.3964L74.0776 19.9396C73.6134 19.0355 72.8891 18.2472 71.9294 17.5684L71.3519 18.3848ZM67.796 24.9173C68.2899 24.9433 68.7489 24.8549 69.1289 24.6016L68.5742 23.7695C68.423 23.8703 68.1958 23.9369 67.8485 23.9187L67.796 24.9173ZM69.1136 24.6114C69.4493 24.4048 69.7264 24.1532 69.9112 23.8451L69.0537 23.3306C68.9729 23.4653 68.8293 23.6121 68.5895 23.7597L69.1136 24.6114ZM69.9214 23.8273C70.0886 23.5207 70.1816 23.1956 70.1816 22.8574H69.1816C69.1816 23.0062 69.1419 23.1681 69.0435 23.3485L69.9214 23.8273ZM70.1816 22.8574C70.1816 22.5821 70.0709 22.2856 69.9296 22.003L69.0352 22.4502C69.1595 22.6988 69.1816 22.8228 69.1816 22.8574H70.1816ZM69.9364 22.017C69.7595 21.6338 69.4794 21.3286 69.1136 21.1035L68.5895 21.9551C68.7992 22.0842 68.9397 22.2438 69.0284 22.4361L69.9364 22.017ZM69.1289 21.1133C68.7684 20.8729 68.3309 20.7565 67.8485 20.7312L67.796 21.7298C68.1547 21.7487 68.4035 21.8315 68.5742 21.9453L69.1289 21.1133ZM67.8223 20.7305H65.6973V21.7305H67.8223V20.7305ZM65.6973 20.7305H56.002V21.7305H65.6973V20.7305ZM55.502 21.2305V23.5215H56.502V21.2305H55.502ZM55.502 23.5215C55.502 23.9021 55.6016 24.2783 55.8873 24.5538C56.1696 24.826 56.5491 24.918 56.9316 24.918V23.918C56.6944 23.918 56.609 23.8605 56.5814 23.8339C56.5572 23.8106 56.502 23.7385 56.502 23.5215H55.502ZM56.9316 24.918H57.1973V23.918H56.9316V24.918ZM57.1973 24.918H67.8223V23.918H57.1973V24.918ZM67.2109 16.9143C67.5242 16.7316 67.7874 16.5064 67.9727 16.2285L67.1406 15.6738C67.0603 15.7943 66.925 15.9234 66.707 16.0505L67.2109 16.9143ZM67.9854 16.2084C68.157 15.9224 68.2559 15.6132 68.2559 15.2871H67.2559C67.2559 15.4037 67.2219 15.5372 67.1279 15.6939L67.9854 16.2084ZM68.2559 15.2871C68.2559 14.9589 68.1556 14.6532 67.9727 14.3789L67.1406 14.9336C67.2234 15.0577 67.2559 15.1726 67.2559 15.2871H68.2559ZM67.9854 14.399C67.7955 14.0825 67.509 13.838 67.1628 13.6516L66.6887 14.532C66.9181 14.6555 67.0522 14.7873 67.1279 14.9135L67.9854 14.399ZM67.2031 13.6758C66.8426 13.4354 66.4051 13.319 65.9228 13.2937L65.8702 14.2923C66.229 14.3112 66.4777 14.394 66.6484 14.5078L67.2031 13.6758ZM65.8965 13.293H56.9316V14.293H65.8965V13.293ZM56.9316 13.293C56.5491 13.293 56.1696 13.3849 55.8873 13.6572C55.6016 13.9327 55.502 14.3088 55.502 14.6895H56.502C56.502 14.4724 56.5572 14.4004 56.5814 14.377C56.609 14.3504 56.6944 14.293 56.9316 14.293V13.293ZM55.502 14.6895V16.7812H56.502V14.6895H55.502ZM56.002 17.2812H65.8965V16.2812H56.002V17.2812ZM65.9228 17.2806C66.4066 17.2551 66.8466 17.1387 67.221 16.9083L66.6969 16.0566C66.4959 16.1803 66.2275 16.2631 65.8702 16.2819L65.9228 17.2806ZM83.9922 9.34375V8.84375H83.9779L83.9637 8.84456L83.9922 9.34375ZM98.0039 9.34375L98.0218 8.84407L98.0128 8.84375H98.0039V9.34375ZM99.5312 10.041L99.1595 10.3756L99.1688 10.3854L99.5312 10.041ZM100.162 11.6348L100.66 11.6763L100.662 11.6556V11.6348H100.162ZM98.0039 13.793V14.293H98.0247L98.0454 14.2912L98.0039 13.793ZM85.1211 13.793V13.293H85.1079L85.0948 13.2937L85.1211 13.793ZM81.8008 16.8145L81.3277 16.6523L81.3251 16.6605L81.8008 16.8145ZM81.8008 21.4961L81.3238 21.646L81.3264 21.6543L81.3293 21.6625L81.8008 21.4961ZM85.1211 24.4844L85.0948 24.9837L85.1079 24.9844H85.1211V24.4844ZM95.2148 24.4844V24.9844H95.2287L95.2426 24.9836L95.2148 24.4844ZM95.8457 23.8203L96.345 23.8466L96.3457 23.8335V23.8203H95.8457ZM95.8457 21.8945H96.3457V21.882L96.3451 21.8696L95.8457 21.8945ZM85.1211 20.5996L84.7586 20.944L84.7674 20.9533L84.7767 20.9621L85.1211 20.5996ZM85.1211 17.4121L84.7767 17.0496L84.7674 17.0584L84.7586 17.0677L85.1211 17.4121ZM99.6641 17.4121L100.027 17.0682L100.018 17.0587L100.008 17.0496L99.6641 17.4121ZM100.295 18.9395H100.795V18.9302L100.795 18.9209L100.295 18.9395ZM100.295 26.7754L100.795 26.7939L100.795 26.7846V26.7754H100.295ZM99.6641 28.2695L99.3105 27.916L99.6641 28.2695ZM98.1367 28.9336V29.4336H98.146L98.1552 29.4333L98.1367 28.9336ZM83.9922 28.9336L83.9637 29.4328L83.9779 29.4336H83.9922V28.9336ZM80.1406 27.1738L79.7689 27.5084L79.7761 27.516L80.1406 27.1738ZM77.9824 23.4219L77.5037 23.5663L77.5059 23.5732L77.9824 23.4219ZM80.1738 11.1367L80.5421 11.4749L80.5455 11.4712L80.1738 11.1367ZM83.9922 9.84375H98.0039V8.84375H83.9922V9.84375ZM97.9861 9.84343C98.4767 9.86095 98.8559 10.0381 99.1596 10.3755L99.9029 9.70653C99.4097 9.15851 98.7707 8.87082 98.0218 8.84407L97.9861 9.84343ZM99.1688 10.3854C99.4996 10.7336 99.6621 11.141 99.6621 11.6348H100.662C100.662 10.8889 100.404 10.2338 99.8937 9.69664L99.1688 10.3854ZM99.6638 11.5932C99.6152 12.1765 99.4391 12.5638 99.186 12.8169C98.9329 13.0699 98.5457 13.2461 97.9624 13.2947L98.0454 14.2912C98.7903 14.2292 99.4268 13.9903 99.8931 13.524C100.359 13.0576 100.598 12.4211 100.66 11.6763L99.6638 11.5932ZM98.0039 13.293H85.1211V14.293H98.0039V13.293ZM85.0948 13.2937C84.1286 13.3445 83.3075 13.7194 82.6624 14.4162L83.3962 15.0956C83.8578 14.597 84.4313 14.33 85.1474 14.2923L85.0948 13.2937ZM82.6624 14.4162C82.0614 15.0652 81.6159 15.812 81.3278 16.6523L82.2738 16.9766C82.5169 16.2674 82.8904 15.6418 83.3962 15.0956L82.6624 14.4162ZM81.3251 16.6605C81.0654 17.4632 80.9355 18.2899 80.9355 19.1387H81.9355C81.9355 18.3937 82.0492 17.6709 82.2765 16.9684L81.3251 16.6605ZM80.9355 19.1387C80.9355 19.9874 81.0653 20.8237 81.3238 21.646L82.2778 21.3462C82.0492 20.619 81.9355 19.8837 81.9355 19.1387H80.9355ZM81.3293 21.6625C81.6181 22.4807 82.0637 23.2146 82.6624 23.8612L83.3962 23.1818C82.8881 22.6331 82.5147 22.0167 82.2723 21.3297L81.3293 21.6625ZM82.6624 23.8612C83.3075 24.5579 84.1286 24.9328 85.0948 24.9837L85.1474 23.9851C84.4313 23.9474 83.8578 23.6804 83.3962 23.1818L82.6624 23.8612ZM85.1211 24.9844H95.2148V23.9844H85.1211V24.9844ZM95.2426 24.9836C95.5288 24.9677 95.8166 24.8748 96.0339 24.6461C96.2475 24.4212 96.3301 24.1308 96.345 23.8466L95.3464 23.794C95.3429 23.861 95.3326 23.9035 95.3237 23.9282C95.3194 23.9401 95.3155 23.9475 95.3131 23.9515C95.3107 23.9554 95.3092 23.957 95.3089 23.9574C95.3086 23.9577 95.308 23.9583 95.3064 23.9594C95.3047 23.9605 95.3005 23.9631 95.2927 23.9662C95.2766 23.9726 95.2439 23.982 95.1871 23.9851L95.2426 24.9836ZM96.3457 23.8203V21.8945H95.3457V23.8203H96.3457ZM96.3451 21.8696C96.3307 21.5816 96.2517 21.2814 96.0339 21.0521C95.8079 20.8142 95.5073 20.7305 95.2148 20.7305V21.7305C95.2691 21.7305 95.2972 21.7381 95.3075 21.7419C95.3154 21.7447 95.3128 21.745 95.3089 21.7409C95.3014 21.733 95.3386 21.7647 95.3463 21.9195L96.3451 21.8696ZM95.2148 20.7305H86.7148V21.7305H95.2148V20.7305ZM86.7148 20.7305C86.2211 20.7305 85.8137 20.5679 85.4655 20.2371L84.7767 20.9621C85.3139 21.4724 85.969 21.7305 86.7148 21.7305V20.7305ZM85.4836 20.2552C85.1528 19.907 84.9902 19.4996 84.9902 19.0059H83.9902C83.9902 19.7517 84.2483 20.4068 84.7586 20.944L85.4836 20.2552ZM84.9902 19.0059C84.9902 18.5121 85.1528 18.1047 85.4836 17.7565L84.7586 17.0677C84.2483 17.6049 83.9902 18.26 83.9902 19.0059H84.9902ZM85.4655 17.7746C85.8137 17.4438 86.2211 17.2812 86.7148 17.2812V16.2812C85.969 16.2812 85.3139 16.5393 84.7767 17.0496L85.4655 17.7746ZM86.7148 17.2812H98.0703V16.2812H86.7148V17.2812ZM98.0703 17.2812C98.5641 17.2812 98.9714 17.4438 99.3197 17.7746L100.008 17.0496C99.4713 16.5393 98.8161 16.2812 98.0703 16.2812V17.2812ZM99.3011 17.756C99.613 18.0852 99.7775 18.4775 99.7953 18.958L100.795 18.9209C100.768 18.2061 100.512 17.5801 100.027 17.0682L99.3011 17.756ZM99.7949 18.9395V19.0059H100.795V18.9395H99.7949ZM99.7949 19.0059V26.7754H100.795V19.0059H99.7949ZM99.7953 26.7569C99.7775 27.2369 99.6139 27.6126 99.3105 27.916L100.018 28.6231C100.511 28.1296 100.768 27.5092 100.795 26.7939L99.7953 26.7569ZM99.3105 27.916C98.9797 28.2468 98.5905 28.4164 98.1182 28.4339L98.1552 29.4333C98.8782 29.4065 99.5073 29.1334 100.018 28.6231L99.3105 27.916ZM98.1367 28.4336H83.9922V29.4336H98.1367V28.4336ZM84.0207 28.4344C82.5931 28.3528 81.4315 27.8184 80.5052 26.8316L79.7761 27.516C80.8862 28.6985 82.2923 29.3373 83.9637 29.4328L84.0207 28.4344ZM80.5123 26.8393C79.5629 25.7845 78.8798 24.5961 78.459 23.2706L77.5059 23.5732C77.9705 25.0368 78.7261 26.3496 79.769 27.5083L80.5123 26.8393ZM78.4611 23.2775C78.0547 21.9299 77.8516 20.5509 77.8516 19.1387H76.8516C76.8516 20.6484 77.069 22.1247 77.5037 23.5662L78.4611 23.2775ZM77.8516 19.1387C77.8516 17.7291 78.065 16.3524 78.4922 15.0068L77.5391 14.7042C77.0808 16.1476 76.8516 17.6263 76.8516 19.1387H77.8516ZM78.4922 15.0068C78.9127 13.6821 79.595 12.5062 80.5421 11.4749L79.8056 10.7985C78.7605 11.9365 78.004 13.2397 77.5391 14.7042L78.4922 15.0068ZM80.5455 11.4712C81.4493 10.4669 82.5966 9.92431 84.0207 9.84294L83.9637 8.84456C82.2888 8.94027 80.8905 9.59296 79.8022 10.8022L80.5455 11.4712ZM113.609 18.6738L113.167 18.9078L113.17 18.9133L113.609 18.6738ZM111.352 15.4531L111.725 15.1204L111.352 15.4531ZM108.729 13.793L108.781 13.2957L108.755 13.293H108.729V13.793ZM104.379 13.1289L104.741 12.7845L104.733 12.7752L104.723 12.7664L104.379 13.1289ZM104.346 10.0078L104.699 10.3614L104.346 10.0078ZM108.729 9.34375H109.229V8.84375H108.729V9.34375ZM108.729 9.37695H108.229V9.87695H108.729V9.37695ZM109.061 9.37695L109.088 8.87772L109.074 8.87695H109.061V9.37695ZM114.008 12.0664L114.366 11.7174L114.361 11.7129L114.008 12.0664ZM116.332 14.9883L115.913 15.2617L116.332 15.9027L116.751 15.2617L116.332 14.9883ZM118.689 12.0664L119.043 12.42L119.045 12.4176L118.689 12.0664ZM123.604 9.37695V8.87695H123.59L123.576 8.87772L123.604 9.37695ZM123.936 9.37695V9.87695H124.436V9.37695H123.936ZM123.936 9.34375V8.84375H123.436V9.34375H123.936ZM128.285 10.0078L127.923 10.3522L127.931 10.3615L127.941 10.3703L128.285 10.0078ZM128.285 13.1289L127.941 12.7664L127.931 12.7752L127.923 12.7845L128.285 13.1289ZM123.936 13.793V13.293H123.909L123.883 13.2957L123.936 13.793ZM119.055 18.6738L119.494 18.9133L119.497 18.9078L119.055 18.6738ZM118.656 19.3711L118.228 19.1138L118.065 19.3852L118.24 19.6484L118.656 19.3711ZM118.789 19.5703L119.233 19.3399L119.22 19.3157L119.205 19.293L118.789 19.5703ZM123.67 24.4512L123.631 24.9496L123.65 24.9512H123.67V24.4512ZM128.02 25.1152L127.657 25.4596L127.666 25.4689L127.675 25.4777L128.02 25.1152ZM128.02 28.2695L127.666 27.916L128.02 28.2695ZM123.338 28.9004L123.31 29.3996L123.324 29.4004H123.338V28.9004ZM118.424 26.2441L118.065 26.5926L118.07 26.5977L118.424 26.2441ZM116.332 23.7207L116.74 23.432L116.332 22.8548L115.924 23.432L116.332 23.7207ZM114.24 26.2441L114.594 26.5977L114.599 26.5925L114.24 26.2441ZM109.326 28.9004V29.4004H109.34L109.354 29.3996L109.326 28.9004ZM104.611 28.2695L104.249 28.6139L104.258 28.6232L104.267 28.632L104.611 28.2695ZM104.645 25.1152L104.989 25.4777L104.998 25.4689L105.007 25.4596L104.645 25.1152ZM108.994 24.4512V24.9512H109.014L109.033 24.9496L108.994 24.4512ZM113.875 19.5703L113.459 19.293L113.444 19.3157L113.431 19.3399L113.875 19.5703ZM114.008 19.3711L114.424 19.6484L114.599 19.3852L114.437 19.1138L114.008 19.3711ZM114.051 18.4399C113.434 17.2731 112.657 16.1667 111.725 15.1204L110.978 15.7858C111.861 16.776 112.59 17.8167 113.167 18.9078L114.051 18.4399ZM111.725 15.1204C110.782 14.0632 109.802 13.4032 108.781 13.2957L108.676 14.2902C109.337 14.3598 110.106 14.8066 110.978 15.7858L111.725 15.1204ZM108.729 13.293H105.939V14.293H108.729V13.293ZM105.939 13.293C105.454 13.293 105.066 13.1262 104.741 12.7845L104.016 13.4733C104.533 14.017 105.185 14.293 105.939 14.293V13.293ZM104.723 12.7664C104.382 12.4418 104.215 12.0534 104.215 11.5684H103.215C103.215 12.3229 103.491 12.9748 104.035 13.4914L104.723 12.7664ZM104.215 11.5684C104.215 11.075 104.377 10.6839 104.699 10.3614L103.992 9.65426C103.474 10.1729 103.215 10.8222 103.215 11.5684H104.215ZM104.699 10.3614C105.049 10.0114 105.454 9.84375 105.939 9.84375V8.84375C105.186 8.84375 104.528 9.11885 103.992 9.65426L104.699 10.3614ZM105.939 9.84375H108.729V8.84375H105.939V9.84375ZM108.229 9.34375V9.37695H109.229V9.34375H108.229ZM108.729 9.87695H109.061V8.87695H108.729V9.87695ZM109.033 9.87618C110.454 9.95515 111.994 10.7595 113.654 12.42L114.361 11.7129C112.613 9.96447 110.854 8.97584 109.088 8.87772L109.033 9.87618ZM113.65 12.4153C114.467 13.2538 115.221 14.2021 115.913 15.2617L116.751 14.7149C116.026 13.6052 115.231 12.6056 114.366 11.7175L113.65 12.4153ZM116.751 15.2617C117.441 14.2042 118.206 13.2574 119.043 12.42L118.336 11.7129C117.447 12.602 116.639 13.6031 115.913 14.7149L116.751 15.2617ZM119.045 12.4176C120.683 10.7585 122.211 9.95509 123.631 9.87618L123.576 8.87772C121.809 8.9759 120.061 9.96545 118.334 11.7152L119.045 12.4176ZM123.604 9.87695H123.936V8.87695H123.604V9.87695ZM124.436 9.37695V9.34375H123.436V9.37695H124.436ZM123.936 9.84375H126.725V8.84375H123.936V9.84375ZM126.725 9.84375C127.21 9.84375 127.598 10.0105 127.923 10.3522L128.648 9.66344C128.131 9.11969 127.479 8.84375 126.725 8.84375V9.84375ZM127.941 10.3703C128.282 10.6949 128.449 11.0833 128.449 11.5684H129.449C129.449 10.8138 129.173 10.1619 128.63 9.64531L127.941 10.3703ZM128.449 11.5684C128.449 12.0534 128.282 12.4418 127.941 12.7664L128.63 13.4914C129.173 12.9748 129.449 12.3229 129.449 11.5684H128.449ZM127.923 12.7845C127.598 13.1262 127.21 13.293 126.725 13.293V14.293C127.479 14.293 128.131 14.017 128.648 13.4733L127.923 12.7845ZM126.725 13.293H123.936V14.293H126.725V13.293ZM123.883 13.2957C122.862 13.4032 121.882 14.0632 120.939 15.1204L121.686 15.7858C122.559 14.8066 123.327 14.3598 123.988 14.2902L123.883 13.2957ZM120.939 15.1204C120.007 16.1667 119.231 17.2731 118.613 18.4399L119.497 18.9078C120.074 17.8167 120.803 16.776 121.686 15.7858L120.939 15.1204ZM118.616 18.4344C118.486 18.6723 118.357 18.8988 118.228 19.1138L119.085 19.6283C119.222 19.4007 119.358 19.1623 119.494 18.9133L118.616 18.4344ZM118.24 19.6484C118.242 19.6512 118.247 19.6581 118.249 19.6609C118.25 19.6637 118.255 19.6706 118.257 19.6733C118.259 19.6761 118.263 19.683 118.265 19.6858C118.267 19.6886 118.272 19.6955 118.273 19.6982C118.275 19.701 118.28 19.7079 118.282 19.7107C118.284 19.7135 118.288 19.7204 118.29 19.7232C118.292 19.7259 118.296 19.7328 118.298 19.7356C118.3 19.7384 118.305 19.7453 118.307 19.7481C118.316 19.7628 118.33 19.7831 118.34 19.7979C118.35 19.8126 118.363 19.8329 118.373 19.8477L119.205 19.293C119.203 19.2893 119.191 19.2717 119.188 19.2681C119.186 19.2644 119.174 19.2468 119.172 19.2432C119.169 19.2395 119.158 19.2219 119.155 19.2183C119.153 19.2146 119.141 19.197 119.139 19.1934C119.129 19.1786 119.115 19.1583 119.105 19.1435C119.096 19.1288 119.082 19.1085 119.072 19.0937L118.24 19.6484ZM118.345 19.8007C118.963 20.9905 119.74 22.1092 120.674 23.1569L121.42 22.4915C120.539 21.5027 119.81 20.4522 119.233 19.3399L118.345 19.8007ZM120.674 23.1569C121.617 24.2149 122.601 24.8684 123.631 24.9496L123.709 23.9527C123.056 23.9012 122.292 23.47 121.42 22.4915L120.674 23.1569ZM123.67 24.9512H126.459V23.9512H123.67V24.9512ZM126.459 24.9512C126.944 24.9512 127.332 25.1179 127.657 25.4596L128.382 24.7709C127.865 24.2271 127.214 23.9512 126.459 23.9512V24.9512ZM127.675 25.4777C128.017 25.8023 128.184 26.1907 128.184 26.6758H129.184C129.184 25.9213 128.908 25.2693 128.364 24.7527L127.675 25.4777ZM128.184 26.6758C128.184 27.1615 128.016 27.566 127.666 27.916L128.373 28.6231C128.908 28.0877 129.184 27.4297 129.184 26.6758H128.184ZM127.666 27.916C127.343 28.2385 126.952 28.4004 126.459 28.4004V29.4004C127.205 29.4004 127.854 29.1417 128.373 28.6231L127.666 27.916ZM126.459 28.4004H123.338V29.4004H126.459V28.4004ZM123.366 28.4012C121.943 28.3221 120.414 27.5275 118.777 25.8906L118.07 26.5977C119.798 28.3254 121.545 29.3016 123.31 29.3996L123.366 28.4012ZM118.782 25.8957C118.048 25.1401 117.368 24.319 116.74 23.432L115.924 24.0094C116.58 24.9375 117.294 25.7987 118.065 26.5925L118.782 25.8957ZM115.924 23.432C115.296 24.319 114.616 25.1401 113.882 25.8957L114.599 26.5925C115.37 25.7987 116.084 24.9375 116.74 24.0094L115.924 23.432ZM113.887 25.8906C112.25 27.5275 110.721 28.3221 109.298 28.4012L109.354 29.3996C111.119 29.3016 112.866 28.3254 114.594 26.5977L113.887 25.8906ZM109.326 28.4004H106.205V29.4004H109.326V28.4004ZM106.205 28.4004C105.711 28.4004 105.304 28.2379 104.956 27.907L104.267 28.632C104.804 29.1423 105.459 29.4004 106.205 29.4004V28.4004ZM104.974 27.9252C104.643 27.5769 104.48 27.1695 104.48 26.6758H103.48C103.48 27.4216 103.739 28.0767 104.249 28.6139L104.974 27.9252ZM104.48 26.6758C104.48 26.1907 104.647 25.8023 104.989 25.4777L104.3 24.7527C103.756 25.2693 103.48 25.9213 103.48 26.6758H104.48ZM105.007 25.4596C105.332 25.1179 105.72 24.9512 106.205 24.9512V23.9512C105.451 23.9512 104.799 24.2271 104.282 24.7709L105.007 25.4596ZM106.205 24.9512H108.994V23.9512H106.205V24.9512ZM109.033 24.9496C110.063 24.8684 111.047 24.2149 111.99 23.1569L111.244 22.4915C110.372 23.47 109.608 23.9012 108.955 23.9527L109.033 24.9496ZM111.99 23.1569C112.924 22.1092 113.701 20.9905 114.319 19.8007L113.431 19.3399C112.854 20.4522 112.125 21.5027 111.244 22.4915L111.99 23.1569ZM114.291 19.8477C114.293 19.844 114.305 19.8264 114.308 19.8228C114.31 19.8191 114.322 19.8015 114.324 19.7979C114.327 19.7942 114.338 19.7766 114.341 19.773C114.343 19.7693 114.355 19.7517 114.357 19.7481C114.397 19.689 114.384 19.7075 114.424 19.6484L113.592 19.0937C113.589 19.0974 113.578 19.115 113.575 19.1186C113.573 19.1223 113.561 19.1399 113.559 19.1435C113.556 19.1472 113.544 19.1648 113.542 19.1685C113.54 19.1721 113.528 19.1897 113.525 19.1934C113.486 19.2524 113.498 19.2339 113.459 19.293L114.291 19.8477ZM114.437 19.1138C114.308 18.8988 114.178 18.6723 114.048 18.4344L113.17 18.9133C113.306 19.1623 113.442 19.4007 113.579 19.6283L114.437 19.1138ZM136.852 31.8223L137.349 31.872L137.352 31.8472V31.8223H136.852ZM134.66 33.9805V34.4805H134.681L134.702 34.4787L134.66 33.9805ZM133.033 33.3496L133.369 32.9788L133.368 32.978L133.033 33.3496ZM132.369 16.0176L131.869 15.9997L131.869 16.0087V16.0176H132.369ZM133.066 14.4902L133.401 14.862L133.411 14.8527L133.066 14.4902ZM148.605 13.8594L148.623 13.3597L148.614 13.3594H148.605V13.8594ZM153.021 15.2539L152.694 15.6318L152.699 15.6359L153.021 15.2539ZM155.18 18.1426L154.717 18.3315L154.718 18.3349L155.18 18.1426ZM155.18 24.75L154.717 24.561L154.715 24.566L155.18 24.75ZM153.021 27.6387L153.344 28.0207L153.345 28.0201L153.021 27.6387ZM149.203 28.9336V29.4336L149.21 29.4335L149.203 28.9336ZM139.275 28.2695L139.638 27.9252L139.629 27.9159L139.62 27.907L139.275 28.2695ZM139.242 25.1484L139.596 25.502L139.242 25.1484ZM150.432 23.9863L150.797 24.3275L150.803 24.3216L150.808 24.3156L150.432 23.9863ZM151.096 22.791L150.621 22.6329L150.619 22.6401L150.617 22.6473L151.096 22.791ZM151.096 20.0684L150.615 20.2057L150.619 20.2198L150.624 20.2335L151.096 20.0684ZM150.432 18.873L150.055 19.2023L150.061 19.2083L150.066 19.2142L150.432 18.873ZM149.336 18.3086L149.362 17.8093L149.349 17.8086H149.336V18.3086ZM137.715 18.3086V17.8086H137.705L137.696 17.809L137.715 18.3086ZM136.354 31.7725C136.296 32.356 136.113 32.7459 135.853 33.0017C135.594 33.2574 135.202 33.4336 134.619 33.4822L134.702 34.4787C135.447 34.4166 136.084 34.1778 136.555 33.7142C137.026 33.2505 137.275 32.6167 137.349 31.872L136.354 31.7725ZM134.66 33.4805C134.166 33.4805 133.743 33.3173 133.369 32.9788L132.698 33.7204C133.253 34.2231 133.915 34.4805 134.66 34.4805V33.4805ZM133.368 32.978C133.035 32.6786 132.869 32.3068 132.869 31.8223H131.869C131.869 32.5773 132.146 33.2237 132.699 33.7213L133.368 32.978ZM132.869 31.8223V16.0176H131.869V31.8223H132.869ZM132.869 16.0354C132.886 15.5448 133.063 15.1655 133.401 14.8619L132.732 14.1186C132.184 14.6118 131.896 15.2508 131.869 15.9997L132.869 16.0354ZM133.411 14.8527C133.759 14.5219 134.166 14.3594 134.66 14.3594V13.3594C133.914 13.3594 133.259 13.6174 132.722 14.1277L133.411 14.8527ZM134.66 14.3594H148.605V13.3594H134.66V14.3594ZM148.588 14.3591C150.475 14.4234 151.817 14.8719 152.694 15.6318L153.349 14.8761C152.233 13.9093 150.632 13.4282 148.623 13.3597L148.588 14.3591ZM152.699 15.6359C153.64 16.431 154.308 17.3298 154.717 18.3315L155.643 17.9536C155.166 16.7861 154.395 15.7591 153.344 14.8719L152.699 15.6359ZM154.718 18.3349C155.137 19.3389 155.344 20.3584 155.344 21.3965H156.344C156.344 20.2211 156.108 19.0712 155.641 17.9503L154.718 18.3349ZM155.344 21.3965C155.344 22.4816 155.135 23.5353 154.717 24.5611L155.643 24.9389C156.109 23.7954 156.344 22.6135 156.344 21.3965H155.344ZM154.715 24.566C154.329 25.5401 153.664 26.4382 152.698 27.2573L153.345 28.0201C154.415 27.1126 155.189 26.0849 155.645 24.934L154.715 24.566ZM152.699 27.2567C151.807 28.0097 150.653 28.4128 149.196 28.4336L149.21 29.4335C150.853 29.4101 152.244 28.9499 153.344 28.0207L152.699 27.2567ZM149.203 28.4336H140.836V29.4336H149.203V28.4336ZM140.836 28.4336C140.351 28.4336 139.962 28.2668 139.638 27.9252L138.913 28.6139C139.429 29.1577 140.081 29.4336 140.836 29.4336V28.4336ZM139.62 27.907C139.278 27.5824 139.111 27.194 139.111 26.709H138.111C138.111 27.4635 138.387 28.1155 138.931 28.632L139.62 27.907ZM139.111 26.709C139.111 26.2156 139.273 25.8245 139.596 25.502L138.889 24.7949C138.37 25.3135 138.111 25.9628 138.111 26.709H139.111ZM139.596 25.502C139.946 25.152 140.35 24.9844 140.836 24.9844V23.9844C140.082 23.9844 139.424 24.2595 138.889 24.7949L139.596 25.502ZM140.836 24.9844H149.336V23.9844H140.836V24.9844ZM149.336 24.9844C149.907 24.9844 150.401 24.7518 150.797 24.3275L150.066 23.6452C149.842 23.8849 149.606 23.9844 149.336 23.9844V24.9844ZM150.808 24.3156C151.164 23.9086 151.421 23.4472 151.575 22.9347L150.617 22.6473C150.505 23.0203 150.319 23.3557 150.055 23.6571L150.808 24.3156ZM151.57 22.9491C151.74 22.4387 151.828 21.9316 151.828 21.4297H150.828C150.828 21.8132 150.761 22.2136 150.621 22.6329L151.57 22.9491ZM151.828 21.4297C151.828 20.9081 151.741 20.3985 151.568 19.9032L150.624 20.2335C150.76 20.6236 150.828 21.0216 150.828 21.4297H151.828ZM151.576 19.931C151.423 19.3951 151.165 18.9255 150.797 18.5319L150.066 19.2142C150.319 19.4847 150.502 19.8119 150.615 20.2057L151.576 19.931ZM150.808 18.5438C150.421 18.1011 149.934 17.8394 149.362 17.8093L149.31 18.8079C149.579 18.8221 149.823 18.9366 150.055 19.2023L150.808 18.5438ZM149.336 17.8086H137.715V18.8086H149.336V17.8086ZM137.696 17.809C137.334 17.8229 136.978 17.9234 136.714 18.1875C136.446 18.4548 136.352 18.8115 136.352 19.1719H137.352C137.352 18.9788 137.401 18.915 137.421 18.8946C137.445 18.8709 137.52 18.8165 137.734 18.8082L137.696 17.809ZM136.352 19.1719V31.8223H137.352V19.1719H136.352ZM166.701 28.9336L166.684 29.4333L166.693 29.4336H166.701V28.9336ZM162.285 27.5723L161.958 27.9501L161.963 27.9543L162.285 27.5723ZM160.127 24.6836L159.664 24.8725L159.665 24.8759L160.127 24.6836ZM160.094 18.0762L159.631 17.8872L159.629 17.8921L160.094 18.0762ZM162.252 15.1875L162.575 15.5695L162.575 15.5689L162.252 15.1875ZM166.104 13.8594V13.3593L166.096 13.3594L166.104 13.8594ZM180.281 14.4902L179.928 14.8438L179.937 14.8531L179.947 14.8619L180.281 14.4902ZM180.281 17.4785L180.625 17.8415L180.626 17.841L180.281 17.4785ZM165.008 18.5742L164.677 18.1993L164.671 18.2043L164.666 18.2095L165.008 18.5742ZM164.211 19.8691L163.737 19.711L163.734 19.72L163.731 19.7291L164.211 19.8691ZM164.211 23.0566L163.731 23.1966L163.734 23.2058L163.737 23.2148L164.211 23.0566ZM165.008 24.3516L164.666 24.7163L164.678 24.7273L164.69 24.7375L165.008 24.3516ZM166.303 24.8496L166.28 25.3491L166.291 25.3496H166.303V24.8496ZM180.281 25.4473L179.937 25.8104L179.947 25.8189L180.281 25.4473ZM180.281 28.3359L179.947 27.9642L179.937 27.973L180.281 28.3359ZM179.982 22.4258L179.664 22.0397L179.655 22.0479L179.982 22.4258ZM166.568 22.4258L166.239 22.8021L166.246 22.8081L166.253 22.8138L166.568 22.4258ZM166.568 20.2676L166.253 19.8795L166.246 19.8853L166.239 19.8913L166.568 20.2676ZM180.016 20.3008L179.686 20.6771L179.693 20.6831L179.7 20.6888L180.016 20.3008ZM166.718 28.4339C164.829 28.3695 163.485 27.9309 162.608 27.1903L161.963 27.9543C163.078 28.896 164.677 29.3649 166.684 29.4333L166.718 28.4339ZM162.613 27.1944C161.666 26.3744 160.997 25.4727 160.588 24.4913L159.665 24.8759C160.142 26.0195 160.912 27.0436 161.958 27.9501L162.613 27.1944ZM160.59 24.4946C160.17 23.4664 159.963 22.4347 159.963 21.3965H158.963C158.963 22.5718 159.198 23.7315 159.664 24.8725L160.59 24.4946ZM159.963 21.3965C159.963 20.308 160.161 19.2637 160.559 18.2602L159.629 17.8921C159.185 19.0137 158.963 20.1829 158.963 21.3965H159.963ZM160.557 18.2651C160.966 17.2633 161.633 16.3645 162.575 15.5695L161.929 14.8055C160.879 15.6927 160.107 16.7197 159.631 17.8872L160.557 18.2651ZM162.575 15.5689C163.491 14.7924 164.658 14.3801 166.111 14.3593L166.096 13.3594C164.451 13.3829 163.049 13.8561 161.929 14.8061L162.575 15.5689ZM166.104 14.3594H178.721V13.3594H166.104V14.3594ZM178.721 14.3594C179.214 14.3594 179.605 14.5213 179.928 14.8438L180.635 14.1367C180.116 13.618 179.467 13.3594 178.721 13.3594V14.3594ZM179.947 14.8619C180.288 15.1693 180.445 15.5229 180.445 15.9512H181.445C181.445 15.2284 181.16 14.6081 180.616 14.1186L179.947 14.8619ZM180.445 15.9512C180.445 16.4084 180.283 16.7875 179.937 17.116L180.626 17.841C181.165 17.3284 181.445 16.6892 181.445 15.9512H180.445ZM179.937 17.1155C179.617 17.4195 179.222 17.5762 178.721 17.5762V18.5762C179.459 18.5762 180.105 18.3344 180.625 17.8415L179.937 17.1155ZM178.721 17.5762H166.303V18.5762H178.721V17.5762ZM166.303 17.5762C165.69 17.5762 165.142 17.7894 164.677 18.1993L165.339 18.9491C165.627 18.695 165.942 18.5762 166.303 18.5762V17.5762ZM164.666 18.2095C164.242 18.6065 163.936 19.1132 163.737 19.711L164.685 20.0273C164.84 19.5626 165.065 19.206 165.35 18.939L164.666 18.2095ZM163.731 19.7291C163.564 20.3019 163.479 20.8693 163.479 21.4297H164.479C164.479 20.9719 164.548 20.4988 164.691 20.0091L163.731 19.7291ZM163.479 21.4297C163.479 22.0305 163.563 22.6199 163.731 23.1966L164.691 22.9166C164.549 22.4309 164.479 21.9357 164.479 21.4297H163.479ZM163.737 23.2148C163.936 23.8126 164.242 24.3193 164.666 24.7163L165.35 23.9868C165.065 23.7198 164.84 23.3632 164.685 22.8985L163.737 23.2148ZM164.69 24.7375C165.15 25.1162 165.685 25.322 166.28 25.3491L166.325 24.3501C165.947 24.3329 165.618 24.2067 165.326 23.9656L164.69 24.7375ZM166.303 25.3496H178.721V24.3496H166.303V25.3496ZM178.721 25.3496C179.222 25.3496 179.617 25.5063 179.937 25.8102L180.625 25.0843C180.105 24.5913 179.459 24.3496 178.721 24.3496V25.3496ZM179.947 25.8189C180.293 26.1307 180.445 26.4751 180.445 26.875H181.445C181.445 26.1681 181.155 25.5607 180.616 25.0756L179.947 25.8189ZM180.445 26.875C180.445 27.3033 180.288 27.6569 179.947 27.9643L180.616 28.7076C181.16 28.2181 181.445 27.5978 181.445 26.875H180.445ZM179.937 27.973C179.617 28.2769 179.222 28.4336 178.721 28.4336V29.4336C179.459 29.4336 180.105 29.1919 180.625 28.6989L179.937 27.973ZM178.721 28.4336H166.701V29.4336H178.721V28.4336ZM180.047 21.3301C180.047 21.5766 179.946 21.808 179.665 22.0398L180.3 22.8117C180.771 22.4238 181.047 21.9247 181.047 21.3301H180.047ZM179.655 22.0479C179.428 22.2446 179.13 22.3574 178.721 22.3574V23.3574C179.33 23.3574 179.873 23.1825 180.31 22.8036L179.655 22.0479ZM178.721 22.3574H167.863V23.3574H178.721V22.3574ZM167.863 22.3574C167.455 22.3574 167.138 22.2446 166.884 22.0377L166.253 22.8138C166.707 23.1824 167.253 23.3574 167.863 23.3574V22.3574ZM166.898 22.0495C166.638 21.8219 166.537 21.5883 166.537 21.3301H165.537C165.537 21.913 165.791 22.4099 166.239 22.8021L166.898 22.0495ZM166.537 21.3301C166.537 21.1022 166.63 20.8777 166.898 20.6439L166.239 19.8913C165.798 20.2772 165.537 20.761 165.537 21.3301H166.537ZM166.884 20.6556C167.138 20.4487 167.455 20.3359 167.863 20.3359V19.3359C167.253 19.3359 166.707 19.5109 166.253 19.8795L166.884 20.6556ZM167.863 20.3359H178.721V19.3359H167.863V20.3359ZM178.721 20.3359C179.119 20.3359 179.431 20.4537 179.686 20.6771L180.345 19.9245C179.892 19.5281 179.34 19.3359 178.721 19.3359V20.3359ZM179.7 20.6888C179.957 20.8972 180.047 21.1052 180.047 21.3301H181.047C181.047 20.7581 180.783 20.2799 180.331 19.9127L179.7 20.6888ZM185.461 18.043L185.924 18.2319L185.926 18.227L185.461 18.043ZM187.586 15.1875L187.909 15.5695L187.909 15.5689L187.586 15.1875ZM191.438 13.8594V13.3593L191.43 13.3594L191.438 13.8594ZM205.482 14.5234L205.12 14.8678L205.129 14.8771L205.138 14.8859L205.482 14.5234ZM205.482 17.6777L205.129 17.3242L205.482 17.6777ZM190.209 18.8398L190.575 19.181L190.58 19.1751L190.585 19.1691L190.209 18.8398ZM189.479 20.0352L189.011 19.8572L189.008 19.867L189.004 19.877L189.479 20.0352ZM189.246 27.1738L189.744 27.2236L189.746 27.1988V27.1738H189.246ZM187.055 29.332V29.832H187.075L187.096 29.8303L187.055 29.332ZM185.428 28.7344L185.083 29.0969L185.093 29.1057L185.102 29.114L185.428 28.7344ZM184.764 21.3965V20.8965H184.264V21.3965H184.764ZM184.797 21.3965V21.8965H185.297V21.3965H184.797ZM185.926 18.227C186.312 17.2515 186.967 16.365 187.909 15.5695L187.263 14.8055C186.213 15.6923 185.451 16.7095 184.996 17.8589L185.926 18.227ZM187.909 15.5689C188.825 14.7924 189.992 14.3801 191.445 14.3593L191.43 13.3594C189.785 13.3829 188.383 13.8561 187.263 14.8061L187.909 15.5689ZM191.438 14.3594H203.922V13.3594H191.438V14.3594ZM203.922 14.3594C204.407 14.3594 204.795 14.5261 205.12 14.8678L205.845 14.1791C205.328 13.6353 204.676 13.3594 203.922 13.3594V14.3594ZM205.138 14.8859C205.48 15.2105 205.646 15.5989 205.646 16.084H206.646C206.646 15.3295 206.371 14.6775 205.827 14.1609L205.138 14.8859ZM205.646 16.084C205.646 16.5697 205.479 16.9742 205.129 17.3242L205.836 18.0313C206.371 17.4959 206.646 16.8379 206.646 16.084H205.646ZM205.129 17.3242C204.806 17.6467 204.415 17.8086 203.922 17.8086V18.8086C204.668 18.8086 205.317 18.5499 205.836 18.0313L205.129 17.3242ZM203.922 17.8086H191.305V18.8086H203.922V17.8086ZM191.305 17.8086C190.722 17.8086 190.225 18.0623 189.833 18.5106L190.585 19.1691C190.813 18.909 191.046 18.8086 191.305 18.8086V17.8086ZM189.843 18.4987C189.485 18.8823 189.209 19.3376 189.011 19.8572L189.946 20.2132C190.102 19.803 190.313 19.4614 190.575 19.181L189.843 18.4987ZM189.004 19.877C188.835 20.3846 188.746 20.8809 188.746 21.3633H189.746C189.746 21.0045 189.812 20.6154 189.953 20.1933L189.004 19.877ZM188.746 21.3633V27.1738H189.746V21.3633H188.746ZM188.749 27.1241C188.69 27.7076 188.508 28.0974 188.248 28.3532C187.988 28.6089 187.596 28.7852 187.013 28.8338L187.096 29.8303C187.841 29.7682 188.479 29.5294 188.949 29.0657C189.42 28.6021 189.669 27.9682 189.744 27.2236L188.749 27.1241ZM187.055 28.832C186.553 28.832 186.126 28.6745 185.753 28.3547L185.102 29.114C185.659 29.5912 186.317 29.832 187.055 29.832V28.832ZM185.772 28.3719C185.43 28.0473 185.264 27.6589 185.264 27.1738H184.264C184.264 27.9283 184.54 28.5803 185.083 29.0969L185.772 28.3719ZM185.264 27.1738V21.3965H184.264V27.1738H185.264ZM184.764 21.8965H184.797V20.8965H184.764V21.8965ZM185.297 21.3965C185.297 20.3114 185.505 19.2577 185.924 18.2319L184.998 17.854C184.531 18.9975 184.297 20.1795 184.297 21.3965H185.297ZM216.639 8.8125V8.3125H216.629L216.62 8.31284L216.639 8.8125ZM218.232 9.44336L217.888 9.80599L217.898 9.81501L218.232 9.44336ZM218.93 10.9707H219.43V10.9618L219.429 10.9529L218.93 10.9707ZM218.93 13.8594H218.43V14.3594H218.93V13.8594ZM231.812 14.4902L232.175 14.1459L232.166 14.1366L232.157 14.1277L231.812 14.4902ZM231.779 17.6777L231.426 17.3242L231.779 17.6777ZM218.93 18.3086V17.8086H218.43V18.3086H218.93ZM218.93 18.9727L219.43 18.9849V18.9727H218.93ZM219.096 21.4961L218.603 21.5806L218.604 21.5888L218.606 21.5969L219.096 21.4961ZM222.25 24.4844L222.224 24.9837L222.237 24.9844H222.25V24.4844ZM230.352 24.4844L230.369 23.9847L230.36 23.9844H230.352V24.4844ZM231.879 25.1816L231.507 25.5162L231.516 25.526L231.879 25.1816ZM232.51 26.7754L233.009 26.7939L233.01 26.7846V26.7754H232.51ZM231.846 28.3027L232.199 28.6563L231.846 28.3027ZM230.352 28.9336V29.4336H230.361L230.37 29.4333L230.352 28.9336ZM221.121 28.9336L221.093 29.4328L221.107 29.4336H221.121V28.9336ZM217.27 27.373L216.92 27.7306L216.928 27.7383L217.27 27.373ZM215.111 23.8203L214.633 23.9647L214.635 23.9716L215.111 23.8203ZM214.447 19.3711H213.947L213.947 19.3781L214.447 19.3711ZM214.447 18.3086H214.947V17.8086H214.447V18.3086ZM209.068 17.6445L209.431 17.3002L209.422 17.2909L209.413 17.282L209.068 17.6445ZM209.035 14.5234L208.682 14.1699L209.035 14.5234ZM214.447 13.8594V14.3594H214.947V13.8594H214.447ZM214.447 10.9707L213.948 10.9522L213.947 10.9614V10.9707H214.447ZM215.111 9.47656L215.455 9.83967L215.465 9.83012L215.111 9.47656ZM216.639 9.3125C217.132 9.3125 217.54 9.47503 217.888 9.80586L218.577 9.08086C218.04 8.57054 217.384 8.3125 216.639 8.3125V9.3125ZM217.898 9.81501C218.235 10.1187 218.412 10.4979 218.43 10.9885L219.429 10.9529C219.403 10.2039 219.115 9.56493 218.567 9.07171L217.898 9.81501ZM218.43 10.9707V13.8594H219.43V10.9707H218.43ZM218.93 14.3594H230.219V13.3594H218.93V14.3594ZM230.219 14.3594C230.713 14.3594 231.12 14.5219 231.468 14.8527L232.157 14.1277C231.62 13.6174 230.965 13.3594 230.219 13.3594V14.3594ZM231.45 14.8346C231.781 15.1829 231.943 15.5902 231.943 16.084H232.943C232.943 15.3382 232.685 14.683 232.175 14.1459L231.45 14.8346ZM231.943 16.084C231.943 16.5697 231.776 16.9742 231.426 17.3242L232.133 18.0313C232.668 17.4959 232.943 16.8379 232.943 16.084H231.943ZM231.426 17.3242C231.103 17.6467 230.712 17.8086 230.219 17.8086V18.8086C230.965 18.8086 231.614 18.5499 232.133 18.0313L231.426 17.3242ZM230.219 17.8086H218.93V18.8086H230.219V17.8086ZM218.43 18.3086V18.9727H219.43V18.3086H218.43ZM218.43 18.9605C218.407 19.8955 218.464 20.7695 218.603 21.5806L219.589 21.4116C219.462 20.6732 219.408 19.8649 219.43 18.9848L218.43 18.9605ZM218.606 21.5969C218.78 22.4443 219.18 23.2008 219.791 23.8612L220.525 23.1818C220.03 22.6469 219.721 22.0531 219.585 21.3953L218.606 21.5969ZM219.791 23.8612C220.436 24.5579 221.258 24.9328 222.224 24.9837L222.276 23.9851C221.56 23.9474 220.987 23.6804 220.525 23.1818L219.791 23.8612ZM222.25 24.9844H230.352V23.9844H222.25V24.9844ZM230.334 24.9841C230.824 25.0016 231.204 25.1787 231.507 25.5161L232.251 24.8472C231.757 24.2991 231.118 24.0114 230.369 23.9847L230.334 24.9841ZM231.516 25.526C231.847 25.8743 232.01 26.2816 232.01 26.7754H233.01C233.01 26.0296 232.752 25.3744 232.241 24.8373L231.516 25.526ZM232.01 26.7569C231.993 27.2292 231.823 27.6184 231.492 27.9492L232.199 28.6563C232.71 28.1459 232.983 27.5169 233.009 26.7939L232.01 26.7569ZM231.492 27.9492C231.189 28.2525 230.813 28.4162 230.333 28.4339L230.37 29.4333C231.085 29.4068 231.706 29.1498 232.199 28.6563L231.492 27.9492ZM230.352 28.4336H221.121V29.4336H230.352V28.4336ZM221.15 28.4344C219.703 28.3517 218.534 27.8706 217.611 27.0078L216.928 27.7383C218.042 28.7792 219.44 29.3384 221.093 29.4328L221.15 28.4344ZM217.619 27.0155C216.685 26.1018 216.007 24.9895 215.588 23.669L214.635 23.9716C215.101 25.4402 215.862 26.6964 216.92 27.7306L217.619 27.0155ZM215.59 23.6759C215.184 22.3293 214.969 20.8928 214.947 19.3641L213.947 19.3781C213.97 20.9926 214.198 22.5222 214.633 23.9647L215.59 23.6759ZM214.947 19.3711V18.3086H213.947V19.3711H214.947ZM214.447 17.8086H210.629V18.8086H214.447V17.8086ZM210.629 17.8086C210.144 17.8086 209.755 17.6418 209.431 17.3002L208.706 17.9889C209.222 18.5327 209.874 18.8086 210.629 18.8086V17.8086ZM209.413 17.282C209.071 16.9574 208.904 16.569 208.904 16.084H207.904C207.904 16.8385 208.18 17.4905 208.724 18.007L209.413 17.282ZM208.904 16.084C208.904 15.5906 209.066 15.1995 209.389 14.877L208.682 14.1699C208.163 14.6885 207.904 15.3378 207.904 16.084H208.904ZM209.389 14.877C209.739 14.527 210.143 14.3594 210.629 14.3594V13.3594C209.875 13.3594 209.217 13.6345 208.682 14.1699L209.389 14.877ZM210.629 14.3594H214.447V13.3594H210.629V14.3594ZM214.947 13.8594V10.9707H213.947V13.8594H214.947ZM214.947 10.9892C214.964 10.5176 215.133 10.1448 215.455 9.83954L214.767 9.11359C214.249 9.60522 213.974 10.2285 213.948 10.9522L214.947 10.9892ZM215.465 9.83012C215.796 9.49933 216.185 9.32965 216.657 9.31216L216.62 8.31284C215.897 8.33962 215.268 8.61265 214.758 9.12301L215.465 9.83012Z" fill="#312ECB" mask="url(#path-3-outside-1_2_32)"/>
</g>
<defs>
<filter id="filter0_d_2_32" x="0" y="6" width="40" height="27" filterUnits="userSpaceOnUse" color-interpolation-filters="sRGB">
<feFlood flood-opacity="0" result="BackgroundImageFix"/>
<feColorMatrix in="SourceAlpha" type="matrix" values="0 0 0 0 0 0 0 0 0 0 0 0 0 0 0 0 0 0 127 0" result="hardAlpha"/>
<feOffset dy="4"/>
<feGaussianBlur stdDeviation="2"/>
<feComposite in2="hardAlpha" operator="out"/>
<feColorMatrix type="matrix" values="0 0 0 0 0 0 0 0 0 0 0 0 0 0 0 0 0 0 0.25 0"/>
<feBlend mode="normal" in2="BackgroundImageFix" result="effect1_dropShadow_2_32"/>
<feBlend mode="normal" in="SourceGraphic" in2="effect1_dropShadow_2_32" result="shape"/>
</filter>
<filter id="filter1_d_2_32" x="9" y="15" width="41" height="27" filterUnits="userSpaceOnUse" color-interpolation-filters="sRGB">
<feFlood flood-opacity="0" result="BackgroundImageFix"/>
<feColorMatrix in="SourceAlpha" type="matrix" values="0 0 0 0 0 0 0 0 0 0 0 0 0 0 0 0 0 0 127 0" result="hardAlpha"/>
<feOffset dy="4"/>
<feGaussianBlur stdDeviation="2"/>
<feComposite in2="hardAlpha" operator="out"/>
<feColorMatrix type="matrix" values="0 0 0 0 0 0 0 0 0 0 0 0 0 0 0 0 0 0 0.25 0"/>
<feBlend mode="normal" in2="BackgroundImageFix" result="effect1_dropShadow_2_32"/>
<feBlend mode="normal" in="SourceGraphic" in2="effect1_dropShadow_2_32" result="shape"/>
</filter>
<filter id="filter2_d_2_32" x="47.0195" y="8.3125" width="189.99" height="34.168" filterUnits="userSpaceOnUse" color-interpolation-filters="sRGB">
<feFlood flood-opacity="0" result="BackgroundImageFix"/>
<feColorMatrix in="SourceAlpha" type="matrix" values="0 0 0 0 0 0 0 0 0 0 0 0 0 0 0 0 0 0 127 0" result="hardAlpha"/>
<feOffset dy="4"/>
<feGaussianBlur stdDeviation="2"/>
<feComposite in2="hardAlpha" operator="out"/>
<feColorMatrix type="matrix" values="0 0 0 0 0 0 0 0 0 0 0 0 0 0 0 0 0 0 0.25 0"/>
<feBlend mode="normal" in2="BackgroundImageFix" result="effect1_dropShadow_2_32"/>
<feBlend mode="normal" in="SourceGraphic" in2="effect1_dropShadow_2_32" result="shape"/>
</filter>
</defs>
</svg>
