<svg width="133" height="41" viewBox="0 0 133 41" fill="none" xmlns="http://www.w3.org/2000/svg">
<g filter="url(#filter0_d_2_33)">
<path d="M17.5583 5H36L22.4417 24H4L17.5583 5Z" fill="#007AFF"/>
</g>
<g filter="url(#filter1_d_2_33)">
<path d="M18.2715 25.6408L13 33H32.39L46 14H31.6889L23.3504 25.6408H18.2715Z" fill="#312ECB"/>
</g>
<g filter="url(#filter2_d_2_33)">
<path d="M73.2969 20.168C73.7174 21.0534 73.9277 21.9499 73.9277 22.8574C73.9277 23.7428 73.7064 24.6283 73.2637 25.5137C72.821 26.377 72.1016 27.1517 71.1055 27.8379C70.1094 28.502 68.8366 28.834 67.2871 28.834H67.0879C66.9551 28.8561 66.8223 28.8672 66.6895 28.8672H53.3418C52.7441 28.8451 52.235 28.6348 51.8145 28.2363C51.416 27.8158 51.2057 27.3066 51.1836 26.709V11.502C51.2057 10.9043 51.416 10.4062 51.8145 10.0078C52.235 9.58724 52.7441 9.36589 53.3418 9.34375H64.7637C64.8965 9.34375 65.0293 9.35482 65.1621 9.37695H65.3613C66.9108 9.42122 68.1836 9.77539 69.1797 10.4395C70.1758 11.1035 70.8952 11.8672 71.3379 12.7305C71.7806 13.5716 72.002 14.4238 72.002 15.2871C72.002 16.1725 71.7917 17.0358 71.3711 17.877C71.349 17.9212 71.3268 17.9544 71.3047 17.9766C72.2122 18.6185 72.8763 19.349 73.2969 20.168ZM67.4863 24.418C67.9069 24.4401 68.25 24.3626 68.5156 24.1855C68.8034 24.0085 69.0137 23.8092 69.1465 23.5879C69.2793 23.3444 69.3457 23.1009 69.3457 22.8574C69.3457 22.7025 69.2793 22.4922 69.1465 22.2266C69.0137 21.9388 68.8034 21.7064 68.5156 21.5293C68.25 21.3522 67.9069 21.2526 67.4863 21.2305H65.3613H55.666V23.5215C55.666 24.1191 55.9759 24.418 56.5957 24.418H56.8613H67.4863ZM66.623 16.4824C66.8887 16.3275 67.0879 16.1504 67.2207 15.9512C67.3535 15.7298 67.4199 15.5085 67.4199 15.2871C67.4199 15.0658 67.3535 14.8555 67.2207 14.6562C67.0879 14.4349 66.8776 14.2467 66.5898 14.0918C66.3242 13.9147 65.9811 13.8151 65.5605 13.793H56.5957C55.9759 13.793 55.666 14.0918 55.666 14.6895V16.7812H65.5605C65.9811 16.7591 66.3353 16.6595 66.623 16.4824ZM83.6562 9.34375H97.668C98.2878 9.36589 98.7969 9.59831 99.1953 10.041C99.6159 10.4837 99.8262 11.015 99.8262 11.6348C99.7155 12.9629 98.9961 13.6823 97.668 13.793H84.7852C83.944 13.8372 83.2467 14.1582 82.6934 14.7559C82.14 15.3535 81.7305 16.0397 81.4648 16.8145C81.2214 17.5671 81.0996 18.3418 81.0996 19.1387C81.0996 19.9355 81.2214 20.7214 81.4648 21.4961C81.7305 22.2487 82.14 22.9238 82.6934 23.5215C83.2467 24.1191 83.944 24.4401 84.7852 24.4844H94.8789C95.2773 24.4622 95.4876 24.2409 95.5098 23.8203V21.8945C95.4876 21.4518 95.2773 21.2305 94.8789 21.2305H86.3789C85.7591 21.2305 85.2279 21.0202 84.7852 20.5996C84.3646 20.1569 84.1543 19.6257 84.1543 19.0059C84.1543 18.3861 84.3646 17.8548 84.7852 17.4121C85.2279 16.9915 85.7591 16.7812 86.3789 16.7812H97.7344C98.3542 16.7812 98.8854 16.9915 99.3281 17.4121C99.7266 17.8327 99.9368 18.3418 99.959 18.9395V19.0059V26.7754C99.9368 27.373 99.7266 27.8711 99.3281 28.2695C98.9076 28.6901 98.3984 28.9115 97.8008 28.9336H83.6562C82.1068 28.8451 80.8229 28.2585 79.8047 27.1738C78.8086 26.0671 78.0892 24.8164 77.6465 23.4219C77.2259 22.0273 77.0156 20.5996 77.0156 19.1387C77.0156 17.6777 77.237 16.25 77.6797 14.8555C78.1224 13.4609 78.8418 12.2214 79.8379 11.1367C80.834 10.0299 82.1068 9.43229 83.6562 9.34375ZM113.273 18.6738C112.676 17.5449 111.923 16.4714 111.016 15.4531C110.108 14.4349 109.234 13.8815 108.393 13.793H105.604C104.984 13.793 104.464 13.5716 104.043 13.1289C103.6 12.7083 103.379 12.1882 103.379 11.5684C103.379 10.9486 103.589 10.4284 104.01 10.0078C104.452 9.5651 104.984 9.34375 105.604 9.34375H108.393V9.37695H108.725C110.318 9.46549 111.967 10.362 113.672 12.0664C114.513 12.9297 115.288 13.9036 115.996 14.9883C116.704 13.9036 117.49 12.9297 118.354 12.0664C120.036 10.362 121.674 9.46549 123.268 9.37695H123.6V9.34375H126.389C127.008 9.34375 127.529 9.5651 127.949 10.0078C128.392 10.4284 128.613 10.9486 128.613 11.5684C128.613 12.1882 128.392 12.7083 127.949 13.1289C127.529 13.5716 127.008 13.793 126.389 13.793H123.6C122.758 13.8815 121.884 14.4349 120.977 15.4531C120.069 16.4714 119.316 17.5449 118.719 18.6738C118.586 18.9173 118.453 19.1497 118.32 19.3711C118.365 19.4375 118.409 19.5039 118.453 19.5703C119.051 20.7214 119.803 21.806 120.711 22.8242C121.618 23.8424 122.493 24.3848 123.334 24.4512H126.123C126.743 24.4512 127.263 24.6725 127.684 25.1152C128.126 25.5358 128.348 26.056 128.348 26.6758C128.348 27.2956 128.126 27.8268 127.684 28.2695C127.263 28.6901 126.743 28.9004 126.123 28.9004H123.002C121.408 28.8118 119.77 27.9264 118.088 26.2441C117.335 25.4694 116.638 24.6283 115.996 23.7207C115.354 24.6283 114.657 25.4694 113.904 26.2441C112.222 27.9264 110.584 28.8118 108.99 28.9004H105.869C105.249 28.9004 104.718 28.6901 104.275 28.2695C103.855 27.8268 103.645 27.2956 103.645 26.6758C103.645 26.056 103.866 25.5358 104.309 25.1152C104.729 24.6725 105.249 24.4512 105.869 24.4512H108.658C109.499 24.3848 110.374 23.8424 111.281 22.8242C112.189 21.806 112.941 20.7214 113.539 19.5703C113.583 19.5039 113.628 19.4375 113.672 19.3711C113.539 19.1497 113.406 18.9173 113.273 18.6738Z" fill="#007DFC"/>
<path d="M73.2969 20.168L73.5228 20.0607L73.5193 20.0538L73.2969 20.168ZM73.2637 25.5137L73.4861 25.6278L73.4873 25.6255L73.2637 25.5137ZM71.1055 27.8379L71.2442 28.0459L71.2473 28.0438L71.1055 27.8379ZM67.0879 28.834V28.584H67.0672L67.0468 28.5874L67.0879 28.834ZM53.3418 28.8672L53.3325 29.1172H53.3418V28.8672ZM51.8145 28.2363L51.6327 28.4085L51.6425 28.4178L51.8145 28.2363ZM51.1836 26.709H50.9334L50.9338 26.7182L51.1836 26.709ZM51.1836 11.502L50.9336 11.4927V11.502H51.1836ZM51.8145 10.0078L51.6377 9.83104L51.8145 10.0078ZM53.3418 9.34375V9.09358L53.3325 9.09392L53.3418 9.34375ZM65.1621 9.37695L65.121 9.62355L65.1414 9.62695H65.1621V9.37695ZM65.3613 9.37695L65.3685 9.12695H65.3613V9.37695ZM71.3379 12.7305L71.1154 12.8446L71.1167 12.8469L71.3379 12.7305ZM71.3711 17.877L71.1475 17.7651L71.3711 17.877ZM71.3047 17.9766L71.1279 17.7998L70.9183 18.0094L71.1603 18.1807L71.3047 17.9766ZM67.4863 24.418L67.4995 24.168H67.4863V24.418ZM68.5156 24.1855L68.3845 23.9725L68.3769 23.9775L68.5156 24.1855ZM69.1465 23.5879L69.361 23.7166L69.366 23.7076L69.1465 23.5879ZM69.1465 22.2266L68.9194 22.3314L68.9229 22.3384L69.1465 22.2266ZM68.5156 21.5293L68.3769 21.7374L68.3846 21.7422L68.5156 21.5293ZM67.4863 21.2305L67.4995 20.9805H67.4863V21.2305ZM55.666 21.2305V20.9805H55.416V21.2305H55.666ZM66.623 16.4824L66.497 16.2664L66.492 16.2695L66.623 16.4824ZM67.2207 15.9512L67.429 16.09L67.4351 16.0798L67.2207 15.9512ZM67.2207 14.6562L67.0061 14.785L67.0127 14.7949L67.2207 14.6562ZM66.5898 14.0918L66.4512 14.2998L66.461 14.3063L66.4713 14.3119L66.5898 14.0918ZM65.5605 13.793L65.5737 13.543H65.5605V13.793ZM55.666 16.7812H55.416V17.0312H55.666V16.7812ZM65.5605 16.7812V17.0316L65.5737 17.0309L65.5605 16.7812ZM73.0711 20.2752C73.477 21.1299 73.6777 21.9899 73.6777 22.8574H74.1777C74.1777 21.9099 73.9579 20.9769 73.5227 20.0607L73.0711 20.2752ZM73.6777 22.8574C73.6777 23.6996 73.4675 24.547 73.0401 25.4019L73.4873 25.6255C73.9453 24.7095 74.1777 23.786 74.1777 22.8574H73.6777ZM73.0412 25.3996C72.6215 26.2181 71.9339 26.9636 70.9636 27.632L71.2473 28.0438C72.2692 27.3398 73.0204 26.5358 73.4861 25.6278L73.0412 25.3996ZM70.9668 27.6299C70.0223 28.2595 68.8016 28.584 67.2871 28.584V29.084C68.8716 29.084 70.1965 28.7444 71.2441 28.0459L70.9668 27.6299ZM67.2871 28.584H67.0879V29.084H67.2871V28.584ZM67.0468 28.5874C66.9274 28.6073 66.8083 28.6172 66.6895 28.6172V29.1172C66.8362 29.1172 66.9828 29.105 67.129 29.0806L67.0468 28.5874ZM66.6895 28.6172H53.3418V29.1172H66.6895V28.6172ZM53.351 28.6174C52.812 28.5974 52.3613 28.41 51.9864 28.0548L51.6425 28.4178C52.1087 28.8595 52.6763 29.0927 53.3325 29.117L53.351 28.6174ZM51.9959 28.0644C51.6408 27.6895 51.4534 27.2388 51.4334 26.6997L50.9338 26.7182C50.9581 27.3745 51.1913 27.942 51.633 28.4083L51.9959 28.0644ZM51.4336 26.709V11.502H50.9336V26.709H51.4336ZM51.4334 11.5112C51.4534 10.9724 51.6403 10.5355 51.9912 10.1846L51.6377 9.83104C51.1917 10.277 50.9581 10.8362 50.9338 11.4927L51.4334 11.5112ZM51.9912 10.1846C52.3669 9.80891 52.8161 9.61339 53.351 9.59358L53.3325 9.09392C52.6722 9.11838 52.1031 9.36557 51.6377 9.83104L51.9912 10.1846ZM53.3418 9.59375H64.7637V9.09375H53.3418V9.59375ZM64.7637 9.59375C64.8825 9.59375 65.0016 9.60365 65.121 9.62355L65.2032 9.13035C65.057 9.10599 64.9104 9.09375 64.7637 9.09375V9.59375ZM65.1621 9.62695H65.3613V9.12695H65.1621V9.62695ZM65.3542 9.62685C66.8704 9.67017 68.0939 10.0161 69.041 10.6475L69.3184 10.2314C68.2733 9.53471 66.9512 9.17228 65.3685 9.12706L65.3542 9.62685ZM69.041 10.6475C70.0098 11.2933 70.6962 12.0271 71.1154 12.8445L71.5603 12.6164C71.0941 11.7073 70.3417 10.9137 69.3184 10.2314L69.041 10.6475ZM71.1167 12.8469C71.5424 13.6558 71.752 14.4684 71.752 15.2871H72.252C72.252 14.3793 72.0188 13.4874 71.5591 12.614L71.1167 12.8469ZM71.752 15.2871C71.752 16.1313 71.5518 16.9565 71.1475 17.7651L71.5947 17.9888C72.0315 17.1151 72.252 16.2137 72.252 15.2871H71.752ZM71.1475 17.7651C71.14 17.7801 71.134 17.7902 71.1299 17.7964C71.1256 17.8028 71.1247 17.803 71.1279 17.7998L71.4815 18.1533C71.5303 18.1045 71.5667 18.0448 71.5947 17.9888L71.1475 17.7651ZM71.1603 18.1807C72.0418 18.8041 72.6757 19.5057 73.0745 20.2822L73.5193 20.0538C73.0769 19.1922 72.3827 18.4329 71.4491 17.7725L71.1603 18.1807ZM67.4732 24.6676C67.9304 24.6917 68.3315 24.6088 68.6543 24.3936L68.3769 23.9775C68.1685 24.1165 67.8834 24.1885 67.4995 24.1683L67.4732 24.6676ZM68.6466 24.3985C68.9584 24.2066 69.202 23.9812 69.3609 23.7165L68.9321 23.4593C68.8253 23.6373 68.6484 23.8103 68.3846 23.9726L68.6466 24.3985ZM69.366 23.7076C69.516 23.4326 69.5957 23.1483 69.5957 22.8574H69.0957C69.0957 23.0536 69.0426 23.2562 68.927 23.4682L69.366 23.7076ZM69.5957 22.8574C69.5957 22.6423 69.5071 22.3889 69.3701 22.1148L68.9229 22.3384C69.0514 22.5955 69.0957 22.7626 69.0957 22.8574H69.5957ZM69.3735 22.1218C69.2186 21.7863 68.9734 21.5175 68.6466 21.3164L68.3846 21.7422C68.6333 21.8953 68.8087 22.0913 68.9195 22.3313L69.3735 22.1218ZM68.6543 21.3213C68.3412 21.1126 67.9509 21.0046 67.4995 20.9808L67.4732 21.4801C67.8629 21.5006 68.1588 21.5919 68.3769 21.7373L68.6543 21.3213ZM67.4863 20.9805H65.3613V21.4805H67.4863V20.9805ZM65.3613 20.9805H55.666V21.4805H65.3613V20.9805ZM55.416 21.2305V23.5215H55.916V21.2305H55.416ZM55.416 23.5215C55.416 23.8612 55.5046 24.1614 55.7249 24.3738C55.9435 24.5846 56.2495 24.668 56.5957 24.668V24.168C56.3221 24.168 56.1632 24.1019 56.072 24.0139C55.9824 23.9275 55.916 23.7794 55.916 23.5215H55.416ZM56.5957 24.668H56.8613V24.168H56.5957V24.668ZM56.8613 24.668H67.4863V24.168H56.8613V24.668ZM66.749 16.6984C67.0385 16.5295 67.2697 16.3284 67.4287 16.0898L67.0127 15.8125C66.9061 15.9724 66.7389 16.1254 66.4971 16.2665L66.749 16.6984ZM67.4351 16.0798C67.5873 15.8261 67.6699 15.5608 67.6699 15.2871H67.1699C67.1699 15.4561 67.1198 15.6335 67.0063 15.8225L67.4351 16.0798ZM67.6699 15.2871C67.6699 15.0123 67.5866 14.7544 67.4287 14.5176L67.0127 14.7949C67.1205 14.9566 67.1699 15.1192 67.1699 15.2871H67.6699ZM67.4351 14.5276C67.2737 14.2587 67.0253 14.0424 66.7084 13.8717L66.4713 14.3119C66.7299 14.4511 66.9021 14.6111 67.0063 14.7849L67.4351 14.5276ZM66.7285 13.8838C66.4154 13.6751 66.0252 13.5671 65.5737 13.5433L65.5474 14.0426C65.9371 14.0631 66.233 14.1544 66.4512 14.2998L66.7285 13.8838ZM65.5605 13.543H56.5957V14.043H65.5605V13.543ZM56.5957 13.543C56.2495 13.543 55.9435 13.6263 55.7249 13.8371C55.5046 14.0496 55.416 14.3497 55.416 14.6895H55.916C55.916 14.4315 55.9824 14.2834 56.072 14.1971C56.1632 14.109 56.3221 14.043 56.5957 14.043V13.543ZM55.416 14.6895V16.7812H55.916V14.6895H55.416ZM55.666 17.0312H65.5605V16.5312H55.666V17.0312ZM65.5737 17.0309C66.0259 17.0071 66.423 16.8991 66.7541 16.6953L66.492 16.2695C66.2476 16.4199 65.9364 16.5111 65.5474 16.5316L65.5737 17.0309ZM83.6562 9.34375V9.09375H83.6491L83.642 9.09416L83.6562 9.34375ZM97.668 9.34375L97.6769 9.09375H97.668V9.34375ZM99.1953 10.041L99.0094 10.2083L99.0141 10.2132L99.1953 10.041ZM99.8262 11.6348L100.075 11.6555L100.076 11.6452V11.6348H99.8262ZM97.668 13.793V14.043H97.6784L97.6887 14.0421L97.668 13.793ZM84.7852 13.793V13.5426L84.772 13.5433L84.7852 13.793ZM81.4648 16.8145L81.2283 16.7334L81.227 16.7375L81.4648 16.8145ZM81.4648 21.4961L81.2262 21.5711L81.2291 21.5793L81.4648 21.4961ZM84.7852 24.4844L84.772 24.7344H84.7852V24.4844ZM94.8789 24.4844V24.7348L94.8928 24.734L94.8789 24.4844ZM95.5098 23.8203L95.7598 23.8335V23.8203H95.5098ZM95.5098 21.8945H95.7601L95.7595 21.882L95.5098 21.8945ZM84.7852 20.5996L84.6037 20.772L84.613 20.7809L84.7852 20.5996ZM84.7852 17.4121L84.6127 17.2306L84.6039 17.2399L84.7852 17.4121ZM99.3281 17.4121L99.5099 17.2399L99.5003 17.2309L99.3281 17.4121ZM99.959 18.9395H100.209L100.209 18.9302L99.959 18.9395ZM99.959 26.7754L100.209 26.7846V26.7754H99.959ZM99.3281 28.2695L99.1513 28.0928L99.3281 28.2695ZM97.8008 28.9336V29.1838L97.81 29.1834L97.8008 28.9336ZM83.6562 28.9336L83.642 29.1832L83.6491 29.1836H83.6562V28.9336ZM79.8047 27.1738L79.6188 27.3411L79.6224 27.3449L79.8047 27.1738ZM77.6465 23.4219L77.4071 23.4941L77.4082 23.4975L77.6465 23.4219ZM79.8379 11.1367L80.022 11.3058L80.0237 11.304L79.8379 11.1367ZM83.6562 9.59375H97.668V9.09375H83.6562V9.59375ZM97.659 9.59359C98.2142 9.61342 98.6584 9.8182 99.0095 10.2083L99.3811 9.87377C98.9353 9.37841 98.3613 9.11835 97.6769 9.09391L97.659 9.59359ZM99.0141 10.2132C99.3898 10.6087 99.5762 11.078 99.5762 11.6348H100.076C100.076 10.952 99.842 10.3588 99.3766 9.86883L99.0141 10.2132ZM99.577 11.614C99.5251 12.2377 99.3332 12.6872 99.0268 12.9936C98.7204 13.3 98.2709 13.4919 97.6472 13.5438L97.6887 14.0421C98.3932 13.9834 98.9674 13.7602 99.3804 13.3472C99.7934 12.9342 100.017 12.36 100.075 11.6555L99.577 11.614ZM97.668 13.543H84.7852V14.043H97.668V13.543ZM84.772 13.5433C83.8683 13.5909 83.1092 13.9388 82.5099 14.586L82.8768 14.9257C83.3843 14.3776 84.0197 14.0836 84.7983 14.0426L84.772 13.5433ZM82.5099 14.586C81.9327 15.2094 81.5052 15.9259 81.2284 16.7334L81.7013 16.8955C81.9557 16.1536 82.3472 15.4977 82.8768 14.9257L82.5099 14.586ZM81.227 16.7375C80.9754 17.5151 80.8496 18.3159 80.8496 19.1387H81.3496C81.3496 18.3677 81.4673 17.619 81.7027 16.8914L81.227 16.7375ZM80.8496 19.1387C80.8496 19.9615 80.9754 20.7725 81.2263 21.5711L81.7033 21.4211C81.4673 20.6702 81.3496 19.9096 81.3496 19.1387H80.8496ZM81.2291 21.5793C81.5063 22.3647 81.9339 23.0692 82.5099 23.6913L82.8768 23.3516C82.3461 22.7785 81.9546 22.1327 81.7006 21.4129L81.2291 21.5793ZM82.5099 23.6913C83.1092 24.3385 83.8683 24.6865 84.772 24.734L84.7983 24.2347C84.0197 24.1937 83.3843 23.8998 82.8768 23.3516L82.5099 23.6913ZM84.7852 24.7344H94.8789V24.2344H84.7852V24.7344ZM94.8928 24.734C95.1355 24.7205 95.3555 24.6436 95.5167 24.4739C95.6761 24.3062 95.7464 24.0807 95.7594 23.8335L95.2601 23.8072C95.251 23.9805 95.2051 24.076 95.1542 24.1296C95.1051 24.1813 95.0208 24.2261 94.865 24.2348L94.8928 24.734ZM95.7598 23.8203V21.8945H95.2598V23.8203H95.7598ZM95.7595 21.882C95.7467 21.6274 95.6782 21.3943 95.5167 21.2243C95.3511 21.05 95.1247 20.9805 94.8789 20.9805V21.4805C95.0315 21.4805 95.1095 21.5216 95.1542 21.5687C95.203 21.6201 95.2507 21.7189 95.2601 21.907L95.7595 21.882ZM94.8789 20.9805H86.3789V21.4805H94.8789V20.9805ZM86.3789 20.9805C85.8221 20.9805 85.3528 20.7941 84.9573 20.4184L84.613 20.7809C85.1029 21.2463 85.6961 21.4805 86.3789 21.4805V20.9805ZM84.9664 20.4274C84.5907 20.0319 84.4043 19.5626 84.4043 19.0059H83.9043C83.9043 19.6887 84.1385 20.2819 84.6039 20.7718L84.9664 20.4274ZM84.4043 19.0059C84.4043 18.4491 84.5907 17.9798 84.9664 17.5843L84.6039 17.2399C84.1385 17.7299 83.9043 18.3231 83.9043 19.0059H84.4043ZM84.9573 17.5934C85.3528 17.2177 85.8221 17.0312 86.3789 17.0312V16.5312C85.6961 16.5312 85.1029 16.7654 84.613 17.2309L84.9573 17.5934ZM86.3789 17.0312H97.7344V16.5312H86.3789V17.0312ZM97.7344 17.0312C98.2912 17.0312 98.7605 17.2177 99.1559 17.5934L99.5003 17.2309C99.0104 16.7654 98.4172 16.5312 97.7344 16.5312V17.0312ZM99.1466 17.584C99.5018 17.959 99.6892 18.4096 99.7092 18.9487L100.209 18.9302C100.185 18.274 99.9513 17.7064 99.5096 17.2402L99.1466 17.584ZM99.709 18.9395V19.0059H100.209V18.9395H99.709ZM99.709 19.0059V26.7754H100.209V19.0059H99.709ZM99.7092 26.7661C99.6892 27.305 99.5022 27.7419 99.1513 28.0928L99.5049 28.4463C99.9509 28.0003 100.184 27.4411 100.209 26.7846L99.7092 26.7661ZM99.1513 28.0928C98.7757 28.4684 98.3265 28.664 97.7915 28.6838L97.81 29.1834C98.4704 29.159 99.0394 28.9118 99.5049 28.4463L99.1513 28.0928ZM97.8008 28.6836H83.6562V29.1836H97.8008V28.6836ZM83.6705 28.684C82.182 28.5989 80.9593 28.0384 79.987 27.0027L79.6224 27.3449C80.6866 28.4785 82.0316 29.0912 83.642 29.1832L83.6705 28.684ZM79.9905 27.0066C79.0178 25.9258 78.3165 24.7062 77.8848 23.3462L77.4082 23.4975C77.8619 24.9266 78.5994 26.2083 79.6189 27.3411L79.9905 27.0066ZM77.8858 23.3497C77.4723 21.9786 77.2656 20.5752 77.2656 19.1387H76.7656C76.7656 20.624 76.9795 22.076 77.4071 23.4941L77.8858 23.3497ZM77.2656 19.1387C77.2656 17.7034 77.483 16.3012 77.918 14.9311L77.4414 14.7798C76.9909 16.1988 76.7656 17.652 76.7656 19.1387H77.2656ZM77.918 14.9311C78.3496 13.5715 79.0504 12.3638 80.022 11.3058L79.6538 10.9676C78.6332 12.0789 77.8952 13.3503 77.4414 14.7798L77.918 14.9311ZM80.0237 11.304C80.9737 10.2484 82.1837 9.6783 83.6705 9.59334L83.642 9.09416C82.0298 9.18628 80.6943 9.81145 79.6521 10.9695L80.0237 11.304ZM113.273 18.6738L113.052 18.7908L113.054 18.7935L113.273 18.6738ZM111.016 15.4531L111.202 15.2868L111.016 15.4531ZM108.393 13.793L108.419 13.5443L108.406 13.543H108.393V13.793ZM104.043 13.1289L104.224 12.9565L104.215 12.9477L104.043 13.1289ZM104.01 10.0078L104.187 10.1846L104.01 10.0078ZM108.393 9.34375H108.643V9.09375H108.393V9.34375ZM108.393 9.37695H108.143V9.62695H108.393V9.37695ZM108.725 9.37695L108.738 9.12695H108.725V9.37695ZM113.672 12.0664L113.851 11.8919L113.849 11.8896L113.672 12.0664ZM115.996 14.9883L115.787 15.125L115.996 15.4455L116.205 15.125L115.996 14.9883ZM118.354 12.0664L118.53 12.2432L118.531 12.242L118.354 12.0664ZM123.268 9.37695V9.12657L123.254 9.12734L123.268 9.37695ZM123.6 9.37695V9.62695H123.85V9.37695H123.6ZM123.6 9.34375V9.09375H123.35V9.34375H123.6ZM127.949 10.0078L127.768 10.1802L127.777 10.1891L127.949 10.0078ZM127.949 13.1289L127.777 12.9474L127.768 12.9567L127.949 13.1289ZM123.6 13.793V13.543H123.586L123.573 13.5443L123.6 13.793ZM118.719 18.6738L118.938 18.7936L118.94 18.7908L118.719 18.6738ZM118.32 19.3711L118.106 19.2425L118.025 19.3781L118.112 19.5098L118.32 19.3711ZM118.453 19.5703L118.675 19.4551L118.669 19.443L118.661 19.4316L118.453 19.5703ZM123.334 24.4512L123.314 24.7004L123.324 24.7012H123.334V24.4512ZM127.684 25.1152L127.502 25.2876L127.511 25.2965L127.684 25.1152ZM127.684 28.2695L127.507 28.0928L127.684 28.2695ZM123.002 28.9004L122.988 29.1504H123.002V28.9004ZM118.088 26.2441L117.909 26.4184L117.911 26.4209L118.088 26.2441ZM115.996 23.7207L116.2 23.5763L115.996 23.2878L115.792 23.5763L115.996 23.7207ZM113.904 26.2441L114.081 26.4209L114.084 26.4183L113.904 26.2441ZM108.99 28.9004V29.1508L109.004 29.15L108.99 28.9004ZM104.275 28.2695L104.094 28.4419L104.103 28.4508L104.275 28.2695ZM104.309 25.1152L104.481 25.2967L104.49 25.2874L104.309 25.1152ZM108.658 24.4512V24.7012H108.668L108.678 24.7004L108.658 24.4512ZM113.539 19.5703L113.331 19.4316L113.323 19.443L113.317 19.4551L113.539 19.5703ZM113.672 19.3711L113.88 19.5098L113.968 19.3781L113.886 19.2425L113.672 19.3711ZM113.494 18.5569C112.887 17.409 112.122 16.319 111.202 15.2868L110.829 15.6195C111.724 16.6237 112.465 17.6808 113.052 18.7908L113.494 18.5569ZM111.202 15.2868C110.277 14.249 109.35 13.6424 108.419 13.5443L108.366 14.0416C109.117 14.1206 109.939 14.6208 110.829 15.6195L111.202 15.2868ZM108.393 13.543H105.604V14.043H108.393V13.543ZM105.604 13.543C105.051 13.543 104.597 13.3489 104.224 12.9567L103.862 13.3011C104.33 13.7943 104.916 14.043 105.604 14.043V13.543ZM104.215 12.9477C103.823 12.5751 103.629 12.1208 103.629 11.5684H103.129C103.129 12.2555 103.378 12.8416 103.871 13.3102L104.215 12.9477ZM103.629 11.5684C103.629 11.0118 103.815 10.5561 104.187 10.1846L103.833 9.83104C103.363 10.3006 103.129 10.8854 103.129 11.5684H103.629ZM104.187 10.1846C104.583 9.78823 105.051 9.59375 105.604 9.59375V9.09375C104.917 9.09375 104.322 9.34198 103.833 9.83104L104.187 10.1846ZM105.604 9.59375H108.393V9.09375H105.604V9.59375ZM108.143 9.34375V9.37695H108.643V9.34375H108.143ZM108.393 9.62695H108.725V9.12695H108.393V9.62695ZM108.711 9.62657C110.218 9.71032 111.813 10.5607 113.495 12.2432L113.849 11.8896C112.122 10.1632 110.418 9.22067 108.738 9.12734L108.711 9.62657ZM113.493 12.2409C114.322 13.0917 115.087 14.0529 115.787 15.125L116.205 14.8516C115.489 13.7544 114.704 12.7676 113.851 11.8919L113.493 12.2409ZM116.205 15.125C116.905 14.0539 117.68 13.0935 118.53 12.2432L118.177 11.8896C117.301 12.7658 116.504 13.7534 115.787 14.8516L116.205 15.125ZM118.531 12.242C120.191 10.5602 121.774 9.71029 123.281 9.62657L123.254 9.12734C121.573 9.2207 119.88 10.1637 118.176 11.8908L118.531 12.242ZM123.268 9.62695H123.6V9.12695H123.268V9.62695ZM123.85 9.37695V9.34375H123.35V9.37695H123.85ZM123.6 9.59375H126.389V9.09375H123.6V9.59375ZM126.389 9.59375C126.941 9.59375 127.395 9.78781 127.768 10.18L128.13 9.83563C127.662 9.3424 127.076 9.09375 126.389 9.09375V9.59375ZM127.777 10.1891C128.169 10.5616 128.363 11.0159 128.363 11.5684H128.863C128.863 10.8812 128.615 10.2951 128.121 9.82656L127.777 10.1891ZM128.363 11.5684C128.363 12.1208 128.169 12.5751 127.777 12.9477L128.121 13.3102C128.615 12.8416 128.863 12.2555 128.863 11.5684H128.363ZM127.768 12.9567C127.395 13.3489 126.941 13.543 126.389 13.543V14.043C127.076 14.043 127.662 13.7943 128.13 13.3011L127.768 12.9567ZM126.389 13.543H123.6V14.043H126.389V13.543ZM123.573 13.5443C122.642 13.6424 121.715 14.249 120.79 15.2868L121.163 15.6195C122.053 14.6208 122.875 14.1206 123.626 14.0416L123.573 13.5443ZM120.79 15.2868C119.87 16.319 119.105 17.409 118.498 18.5569L118.94 18.7908C119.527 17.6808 120.268 16.6237 121.163 15.6195L120.79 15.2868ZM118.499 18.5541C118.368 18.7948 118.237 19.0243 118.106 19.2425L118.535 19.4997C118.669 19.2752 118.804 19.0398 118.938 18.7935L118.499 18.5541ZM118.112 19.5098C118.117 19.5171 118.124 19.5273 118.129 19.5347C118.134 19.542 118.141 19.5522 118.146 19.5596C118.15 19.567 118.157 19.5771 118.162 19.5845C118.167 19.5919 118.174 19.602 118.179 19.6094C118.193 19.6315 118.197 19.637 118.212 19.6592C118.227 19.6813 118.23 19.6869 118.245 19.709L118.661 19.4316C118.656 19.4243 118.649 19.4141 118.645 19.4067C118.64 19.3994 118.633 19.3892 118.628 19.3818C118.623 19.3745 118.616 19.3643 118.611 19.3569C118.606 19.3496 118.6 19.3394 118.595 19.332C118.58 19.3099 118.576 19.3044 118.562 19.2822C118.547 19.2601 118.543 19.2546 118.528 19.2324L118.112 19.5098ZM118.231 19.6855C118.839 20.8559 119.604 21.9576 120.524 22.9906L120.898 22.6579C120.003 21.6544 119.263 20.5868 118.675 19.4551L118.231 19.6855ZM120.524 22.9906C121.45 24.0287 122.379 24.6266 123.314 24.7004L123.354 24.2019C122.607 24.143 121.787 23.6562 120.898 22.6579L120.524 22.9906ZM123.334 24.7012H126.123V24.2012H123.334V24.7012ZM126.123 24.7012C126.675 24.7012 127.13 24.8952 127.502 25.2874L127.865 24.943C127.396 24.4498 126.81 24.2012 126.123 24.2012V24.7012ZM127.511 25.2965C127.904 25.6691 128.098 26.1234 128.098 26.6758H128.598C128.598 25.9886 128.349 25.4026 127.856 24.934L127.511 25.2965ZM128.098 26.6758C128.098 27.2285 127.903 27.6964 127.507 28.0928L127.86 28.4463C128.349 27.9573 128.598 27.3626 128.598 26.6758H128.098ZM127.507 28.0928C127.135 28.4643 126.68 28.6504 126.123 28.6504V29.1504C126.806 29.1504 127.391 28.9159 127.86 28.4463L127.507 28.0928ZM126.123 28.6504H123.002V29.1504H126.123V28.6504ZM123.016 28.6508C121.508 28.567 119.924 27.727 118.265 26.0674L117.911 26.4209C119.616 28.1259 121.309 29.0567 122.988 29.15L123.016 28.6508ZM118.267 26.0699C117.524 25.3048 116.835 24.4736 116.2 23.5763L115.792 23.8651C116.441 24.7829 117.147 25.634 117.909 26.4183L118.267 26.0699ZM115.792 23.5763C115.157 24.4736 114.468 25.3048 113.725 26.0699L114.084 26.4183C114.846 25.634 115.551 24.7829 116.2 23.8651L115.792 23.5763ZM113.728 26.0674C112.068 27.727 110.485 28.567 108.976 28.6508L109.004 29.15C110.683 29.0567 112.376 28.1259 114.081 26.4209L113.728 26.0674ZM108.99 28.6504H105.869V29.1504H108.99V28.6504ZM105.869 28.6504C105.312 28.6504 104.843 28.464 104.448 28.0883L104.103 28.4508C104.593 28.9162 105.186 29.1504 105.869 29.1504V28.6504ZM104.457 28.0973C104.081 27.7019 103.895 27.2326 103.895 26.6758H103.395C103.395 27.3586 103.629 27.9518 104.094 28.4417L104.457 28.0973ZM103.895 26.6758C103.895 26.1234 104.089 25.6691 104.481 25.2965L104.136 24.934C103.643 25.4026 103.395 25.9886 103.395 26.6758H103.895ZM104.49 25.2874C104.862 24.8952 105.317 24.7012 105.869 24.7012V24.2012C105.182 24.2012 104.596 24.4498 104.127 24.943L104.49 25.2874ZM105.869 24.7012H108.658V24.2012H105.869V24.7012ZM108.678 24.7004C109.613 24.6266 110.543 24.0287 111.468 22.9906L111.095 22.6579C110.205 23.6562 109.386 24.143 108.639 24.2019L108.678 24.7004ZM111.468 22.9906C112.389 21.9576 113.153 20.8559 113.761 19.6855L113.317 19.4551C112.73 20.5868 111.989 21.6544 111.095 22.6579L111.468 22.9906ZM113.747 19.709C113.752 19.7016 113.775 19.6666 113.78 19.6592C113.785 19.6518 113.809 19.6168 113.813 19.6094C113.833 19.5799 113.86 19.5393 113.88 19.5098L113.464 19.2324C113.459 19.2398 113.436 19.2748 113.431 19.2822C113.426 19.2896 113.402 19.3246 113.397 19.332C113.378 19.3615 113.351 19.4021 113.331 19.4316L113.747 19.709ZM113.886 19.2425C113.755 19.0243 113.624 18.7948 113.493 18.5541L113.054 18.7935C113.188 19.0398 113.323 19.2752 113.458 19.4997L113.886 19.2425Z" fill="#312ECB"/>
</g>
<defs>
<filter id="filter0_d_2_33" x="0" y="5" width="40" height="27" filterUnits="userSpaceOnUse" color-interpolation-filters="sRGB">
<feFlood flood-opacity="0" result="BackgroundImageFix"/>
<feColorMatrix in="SourceAlpha" type="matrix" values="0 0 0 0 0 0 0 0 0 0 0 0 0 0 0 0 0 0 127 0" result="hardAlpha"/>
<feOffset dy="4"/>
<feGaussianBlur stdDeviation="2"/>
<feComposite in2="hardAlpha" operator="out"/>
<feColorMatrix type="matrix" values="0 0 0 0 0 0 0 0 0 0 0 0 0 0 0 0 0 0 0.25 0"/>
<feBlend mode="normal" in2="BackgroundImageFix" result="effect1_dropShadow_2_33"/>
<feBlend mode="normal" in="SourceGraphic" in2="effect1_dropShadow_2_33" result="shape"/>
</filter>
<filter id="filter1_d_2_33" x="9" y="14" width="41" height="27" filterUnits="userSpaceOnUse" color-interpolation-filters="sRGB">
<feFlood flood-opacity="0" result="BackgroundImageFix"/>
<feColorMatrix in="SourceAlpha" type="matrix" values="0 0 0 0 0 0 0 0 0 0 0 0 0 0 0 0 0 0 127 0" result="hardAlpha"/>
<feOffset dy="4"/>
<feGaussianBlur stdDeviation="2"/>
<feComposite in2="hardAlpha" operator="out"/>
<feColorMatrix type="matrix" values="0 0 0 0 0 0 0 0 0 0 0 0 0 0 0 0 0 0 0.25 0"/>
<feBlend mode="normal" in2="BackgroundImageFix" result="effect1_dropShadow_2_33"/>
<feBlend mode="normal" in="SourceGraphic" in2="effect1_dropShadow_2_33" result="shape"/>
</filter>
<filter id="filter2_d_2_33" x="46.9334" y="9.09358" width="85.9299" height="28.0902" filterUnits="userSpaceOnUse" color-interpolation-filters="sRGB">
<feFlood flood-opacity="0" result="BackgroundImageFix"/>
<feColorMatrix in="SourceAlpha" type="matrix" values="0 0 0 0 0 0 0 0 0 0 0 0 0 0 0 0 0 0 127 0" result="hardAlpha"/>
<feOffset dy="4"/>
<feGaussianBlur stdDeviation="2"/>
<feComposite in2="hardAlpha" operator="out"/>
<feColorMatrix type="matrix" values="0 0 0 0 0 0 0 0 0 0 0 0 0 0 0 0 0 0 0.25 0"/>
<feBlend mode="normal" in2="BackgroundImageFix" result="effect1_dropShadow_2_33"/>
<feBlend mode="normal" in="SourceGraphic" in2="effect1_dropShadow_2_33" result="shape"/>
</filter>
</defs>
</svg>
